<svg version="1" xmlns="http://www.w3.org/2000/svg" width="346.667" height="346.667" viewBox="0 0 260.000000 260.000000"><path d="M113 42.1c-13.2 1.1-26.8 6.3-34.5 13L75 58.2v61.3c0 60 .2 64.7 3 61.9.5-.5 1.2-13 1.7-27.7l.8-26.8 15.3 13.6c8.3 7.5 15.3 14 15.3 14.3 1.3 7.4.2 13.2-3.3 18.4-2.3 3.4-2.3 3.3 1.2 8.8 2.6 4.1 2.8 5 2 8.2-.8 2.6-.6 4.6.5 7.9 1.1 3 1.4 5.9.9 9.2-.6 4.7-.5 4.9 1.7 4.5 1.9-.2 2.5-1.1 3.1-4.8.4-2.4 1.4-4.8 2.2-5.2.9-.5 1.3-1.5 1-2.2-.3-.8.5-1.6 2.1-2 3.1-.8 4.5-.1 4.5 2.2 0 1.2.3 1.3 1.1.5 2-2 .2-4.2-3.8-4.9-3.2-.5-4.1-1.2-5.7-4.5l-1.9-3.9 3.3-3.5 3.3-3.4-3.2-3.9-3.1-4 4 .5c8.4 1.2 11.8-5.6 3.5-7.1-3.1-.6-3.3-.9-2.3-2.6 1.1-1.6.8-2.4-1.7-5-1.6-1.6-2.7-3-2.4-3 .2 0 5.6-.9 11.9-2 6.3-1.1 12.1-2 12.8-2 .9 0 1.2 2.5 1.2 9.3 0 9.3.9 12.1 3.6 11 1.1-.4 1.4-3 1.4-10.9 0-9.9.1-10.4 2.3-10.9 3.4-.7 26.3-4.5 27.6-4.5.8 0 1.1 7.8 1.1 28.3 0 28.6.3 31.3 3.6 30 1.2-.4 1.4-6.2 1.4-31.9V140l-18-15.7-18-15.8V47.1l-2.8-1.5c-5.8-3-21.1-4.6-33.2-3.5zm27.3 6.9l3.7 1.1v26.2l-3.7-.7c-22-3.8-37.7-2.1-52.8 5.8-3.3 1.7-6.3 3.2-6.7 3.4-.5.2-.8-5.2-.8-12.1V60.3l3.8-2.6c5.5-3.8 14.3-7.6 21.4-9.2 7.3-1.7 29-1.4 35.1.5zm-5.7 31.1c10.4 1.8 9.5.4 9.2 14.7l-.3 12.7-27.5 4.7c-15.1 2.5-29.4 4.9-31.7 5.3l-4.3.6V92l5.3-3.4c10.7-6.8 19.8-9.4 33.8-9.5 5.2-.1 12.2.4 15.5 1zm26.6 46.1c12.2 10.7 14.7 13.3 13.2 13.8-1.1.4-15 2.9-31 5.6l-29.1 4.8-14.7-13.1c-8.1-7.3-14.7-13.6-14.7-14 0-.8 52.1-10 57.9-10.2 3-.1 5.3 1.6 18.4 13.1zm-34.8 42.7c.8 1.2-4.1 2.3-6.5 1.6-1-.4-1.9-1.1-1.9-1.6 0-1.2 7.7-1.2 8.4 0zm-14.4 8.7c0 .8-.4 1.2-1 .9-.5-.3-1-1.3-1-2.1s.5-1.2 1-.9c.6.3 1 1.3 1 2.1z"/></svg>