<?xml version="1.0" standalone="no"?>
<!DOCTYPE svg PUBLIC "-//W3C//DTD SVG 20010904//EN"
 "http://www.w3.org/TR/2001/REC-SVG-20010904/DTD/svg10.dtd">
<svg version="1.0" xmlns="http://www.w3.org/2000/svg"
 width="260.000000pt" height="260.000000pt" viewBox="0 0 260.000000 260.000000"
 preserveAspectRatio="xMidYMid meet">
<metadata>
Created by potrace 1.11, written by Peter Selinger 2001-2013
</metadata>
<g transform="translate(0.000000,260.000000) scale(0.100000,-0.100000)"
fill="#000000" stroke="none">
<path d="M1023 2161 c-85 -21 -183 -68 -235 -111 l-38 -31 0 -534 c0 -524 0
-535 20 -545 20 -11 20 -8 20 190 0 110 4 200 9 200 8 0 137 -111 270 -233 57
-52 67 -96 40 -168 -11 -28 -26 -60 -34 -73 -14 -21 -12 -27 32 -90 l46 -67
14 32 c16 39 17 63 1 53 -7 -5 -9 -2 -5 9 3 9 1 18 -6 21 -9 5 -9 7 1 12 9 4
10 10 2 19 -12 15 0 54 24 74 20 17 86 6 86 -14 0 -8 5 -15 10 -15 6 0 10 9
10 19 0 21 -19 31 -56 31 -26 0 -31 9 -13 27 9 9 5 20 -15 44 -15 17 -24 34
-22 37 6 5 211 42 238 42 15 0 18 -13 20 -97 3 -93 4 -98 25 -101 22 -3 22 0
25 105 l3 107 130 23 c72 12 140 22 153 22 l22 1 0 -267 c0 -148 3 -278 6
-290 4 -14 14 -23 25 -23 18 0 19 13 19 314 l0 315 -180 157 -180 157 -2 311
-3 310 -50 20 c-74 28 -312 33 -412 7z m380 -50 l37 -12 0 -131 0 -130 -32 6
c-18 4 -92 9 -164 13 -160 7 -250 -10 -362 -68 -42 -21 -77 -39 -79 -39 -2 0
-3 56 -3 125 l0 124 45 31 c107 73 220 101 390 96 72 -2 147 -9 168 -15z m0
-321 l37 -11 0 -127 0 -128 -312 -52 c-172 -29 -316 -52 -320 -52 -5 0 -8 58
-8 129 0 129 0 130 27 151 40 31 143 78 209 95 69 17 305 14 367 -5z m279
-512 l87 -77 -32 -6 c-18 -3 -158 -27 -312 -54 l-280 -48 -152 136 c-84 75
-153 138 -153 141 0 3 138 29 308 56 l307 50 70 -61 c39 -33 109 -95 157 -137z
m-542 -474 c0 -2 -7 -4 -15 -4 -21 0 -37 34 -23 48 8 8 15 4 25 -15 7 -14 13
-27 13 -29z"/>
</g>
</svg>
