# Blender v2.79 (sub 0) OBJ File: 'PanneauVitesse.blend'
# www.blender.org
mtllib panneau_signalisation_rouge.mtl
o Cylinder.002_Cylinder.013
v 0.000000 7.293725 0.200719
v 0.707107 7.000832 0.200719
v 1.000000 6.293725 0.200719
v 0.707107 5.586619 0.200719
v -0.000000 5.293725 0.200719
v -0.707107 5.586619 0.200719
v -1.000000 6.293725 0.200719
v -0.707107 7.000832 0.200719
v 0.000000 7.524768 0.200719
v 0.870479 7.164204 0.200719
v 1.231043 6.293725 0.200719
v 0.870479 5.423247 0.200719
v -0.000000 5.062683 0.200719
v -0.870479 5.423247 0.200719
v -1.231043 6.293725 0.200719
v -0.870479 7.164204 0.200719
v 0.000000 7.293725 0.389023
v 0.707107 7.000832 0.389023
v 1.000000 6.293725 0.389022
v 0.707107 5.586619 0.389022
v -0.000000 5.293725 0.389022
v -0.707107 5.586619 0.389022
v -1.000000 6.293725 0.389022
v -0.707107 7.000832 0.389023
v 0.000000 7.524768 0.389023
v 0.870479 7.164204 0.389023
v 1.231043 6.293725 0.389022
v 0.870479 5.423247 0.389022
v -0.000000 5.062683 0.389022
v -0.870479 5.423247 0.389022
v -1.231043 6.293725 0.389022
v -0.870479 7.164204 0.389023
v 0.000000 7.293725 0.200719
v 0.707107 7.000832 0.200719
v 1.000000 6.293725 0.200719
v 0.707107 5.586619 0.200719
v -0.000000 5.293725 0.200719
v -0.707107 5.586619 0.200719
v -1.000000 6.293725 0.200719
v -0.707107 7.000832 0.200719
v 0.000000 7.293725 0.200719
v 0.707107 7.000832 0.200719
v 1.000000 6.293725 0.200719
v 0.707107 5.586619 0.200719
v -0.000000 5.293725 0.200719
v -0.707107 5.586619 0.200719
v -1.000000 6.293725 0.200719
v -0.707107 7.000832 0.200719
v 0.000000 7.293725 0.389023
v 0.707107 7.000832 0.389023
v 1.000000 6.293725 0.389022
v 0.707107 5.586619 0.389022
v -0.000000 5.293725 0.389022
v -0.707107 5.586619 0.389022
v -1.000000 6.293725 0.389022
v -0.707107 7.000832 0.389023
v 0.000000 7.293725 0.389023
v 0.707107 7.000832 0.389022
v 1.000000 6.293725 0.389022
v 0.707107 5.586619 0.389022
v -0.000000 5.293725 0.389022
v -0.707107 5.586619 0.389022
v -1.000000 6.293725 0.389022
v -0.707107 7.000832 0.389022
vn 0.0000 0.0000 -1.0000
vn 0.0000 -0.0000 1.0000
vn 0.3827 -0.9239 0.0000
vn 0.3827 0.9239 0.0000
vn 0.9239 0.3827 0.0000
vn 0.9239 -0.3827 0.0000
vn -0.3827 -0.9239 0.0000
vn -0.9239 -0.3827 0.0000
vn -0.9239 0.3827 0.0000
vn -0.3827 0.9239 0.0000
usemtl None
s off
f 5//1 13//1 14//1 6//1
f 3//1 11//1 12//1 4//1
f 1//1 9//1 10//1 2//1
f 8//1 16//1 9//1 1//1
f 6//1 14//1 15//1 7//1
f 4//1 12//1 13//1 5//1
f 2//1 10//1 11//1 3//1
f 7//1 15//1 16//1 8//1
f 21//2 22//2 30//2 29//2
f 19//2 20//2 28//2 27//2
f 17//2 18//2 26//2 25//2
f 24//2 17//2 25//2 32//2
f 22//2 23//2 31//2 30//2
f 20//2 21//2 29//2 28//2
f 18//2 19//2 27//2 26//2
f 23//2 24//2 32//2 31//2
f 40//3 33//3 49//3 56//3
f 42//4 41//4 57//4 58//4
f 43//5 42//5 58//5 59//5
f 44//6 43//6 59//6 60//6
f 33//7 34//7 50//7 49//7
f 45//3 44//3 60//3 61//3
f 34//8 35//8 51//8 50//8
f 46//7 45//7 61//7 62//7
f 35//9 36//9 52//9 51//9
f 47//8 46//8 62//8 63//8
f 36//10 37//10 53//10 52//10
f 48//9 47//9 63//9 64//9
f 37//4 38//4 54//4 53//4
f 41//10 48//10 64//10 57//10
f 38//5 39//5 55//5 54//5
f 39//6 40//6 56//6 55//6
f 16//9 15//9 31//9 32//9
f 9//10 16//10 32//10 25//10
f 15//8 14//8 30//8 31//8
f 14//7 13//7 29//7 30//7
f 13//3 12//3 28//3 29//3
f 12//6 11//6 27//6 28//6
f 11//5 10//5 26//5 27//5
f 10//4 9//4 25//4 26//4
