<svg width="3.463e4" height="778.7" version="1.1" viewBox="0 0 9161.6396 206.02223" xmlns="http://www.w3.org/2000/svg">
<g transform="translate(4319 -48.85)">
<path d="m-4319 151.9v-103h187v206h-187zm185.2 0v-101.2h-183.4v202.5h183.4zm-92.08 3.351v-2.999h-2.999c-1.764 0-2.999-.1453-2.999-.3528 0-.2075 1.235-.3528 2.999-.3528h2.999v-2.999c0-1.764.1453-2.999.3528-2.999s.3528 1.235.3528 2.999v2.999h2.999c1.764 0 2.999.1453 2.999.3528 0 .2075-1.235.3528-2.999.3528h-2.999v2.999c0 1.764-.1453 2.999-.3528 2.999s-.3528-1.235-.3528-2.999zm6727 99.29c-7.48-1.175-15.14-5.782-20.3-12.21-3.098-3.861-5.259-7.595-7.983-13.79-3.083-7.013-3.654-7.917-5.858-9.275-2.429-1.496-3.735-1.603-10.5-.8628-7.479.819-16.18.6027-20.22-.5025-4.311-1.179-7.206-2.467-10.5-4.671-10.12-6.767-14.96-18.27-12.83-30.48 1.271-7.287 3.955-12.79 10.74-22.01 3.66-4.973 4.24-6.184 4.24-8.838 0-2.663-.5909-3.894-4.235-8.819-5.721-7.733-8.539-13.01-10.13-18.95-1.258-4.706-1.326-12.18-.1517-16.5 2.907-10.69 11.4-18.74 22.85-21.66 5.66-1.444 12.6-1.564 22.17-.3815 4.621.5706 5.683.467 8.028-.7828 2.603-1.388 3.092-2.103 6.219-9.1 3.927-8.788 6.489-12.85 10.81-17.14 11.78-11.7 28.55-12.74 41.32-2.582 4.797 3.817 8.038 8.255 11.83 16.19 5.299 11.11 5.223 10.98 7.371 12.27 1.06.6376 2.322 1.259 2.803 1.382.7144.1814 8.081-.3485 15.76-1.134 2.467-.2522 9.288.4999 12.64 1.394 11.49 3.061 19.55 10.93 22.62 22.07 1.018 3.699.8612 11.51-.3217 15.97-1.571 5.925-4.296 11.03-10.12 18.93-3.688 5.011-4.24 6.174-4.24 8.918 0 2.733.3862 3.5 4.825 9.585 4.058 5.563 5.771 8.412 7.576 12.6 8.569 19.88-1.615 39.8-22.51 44.04-4.397.8918-11.93.9724-18.47.1975-6.539-.7755-7.484-.7185-9.959.601-2.61 1.391-3.123 2.143-6.224 9.121-3.835 8.627-6.445 12.77-10.78 17.12-4.19 4.197-9.86 7.476-15.16 8.766-2.979.7252-8.466.9877-11.31.5411zm2155-102.6v-103h187v206h-187zm185.2 0v-101.2h-183.4v202.5h183.4zm-92.08 3.351v-2.999h-2.999c-1.764 0-2.999-.1453-2.999-.3528 0-.2075 1.235-.3528 2.999-.3528h2.999v-2.999c0-1.764.1453-2.999.3528-2.999.2074 0 .3528 1.235.3528 2.999v2.999h2.999c1.764 0 2.999.1453 2.999.3528 0 .2075-1.235.3528-2.999.3528h-2.999v2.999c0 1.764-.1454 2.999-.3528 2.999-.2075 0-.3528-1.235-.3528-2.999zm-2437 97.55c-5.547-1.497-10.87-4.774-15.09-9.293-4.203-4.498-6.907-9.315-10.31-18.38-2.402-6.387-3.001-7.507-4.589-8.578-1.572-1.06-4.047-1.037-10.42.09379-12.47 2.212-20.95 1.358-29.28-2.951-4.167-2.155-9.234-7.032-11.42-10.99-3.044-5.515-4.286-11.66-3.58-17.73.9874-8.493 4.26-15.1 12.27-24.79 5.169-6.247 5.797-7.845 4.262-10.85-.4152-.8145-2.333-3.388-4.262-5.719-8.015-9.685-11.29-16.29-12.27-24.79-.7056-6.066.5358-12.21 3.58-17.73 2.185-3.958 7.252-8.836 11.42-10.99 8.342-4.314 16.55-5.146 29.28-2.97 6.716 1.148 8.853 1.171 10.42.1125 1.588-1.07 2.188-2.19 4.589-8.578 3.407-9.063 6.111-13.88 10.31-18.38 6.243-6.681 13.64-10.04 22.12-10.04 4.89 0 8.36.7894 12.58 2.861 8.975 4.41 14.81 11.94 19.85 25.58 3.702 10.04 4.297 10.37 15.13 8.409 4.305-.7793 6.274-.9438 11.54-.9645 7.77-.03054 10.63.5811 16.76 3.581 3.648 1.787 4.399 2.327 7.449 5.359 2.382 2.367 3.827 4.159 4.852 6.017 5.92 10.72 4.795 23.42-3.12 35.19-1.14 1.696-3.728 5.092-5.751 7.547-4.7 5.703-5.495 7.576-4.363 10.28.2624.6286 1.995 2.976 3.85 5.216 6.521 7.877 9.802 13.29 11.69 19.29 5.071 16.16-3.132 32.16-19.2 37.45-6.25 2.057-14.06 2.246-23.78.5746-6.682-1.149-8.874-1.172-10.45-.1106-1.588 1.07-2.188 2.19-4.589 8.578-2.387 6.348-4.674 11.03-6.959 14.26-4.461 6.3-10.56 10.94-17.19 13.06-3.635 1.164-11.63 1.347-15.32.3496zm-186.1-2.687c-1.164-.2804-3.546-1.21-5.292-2.065-9.639-4.723-15.46-13.77-18.48-28.71-2.173-10.77-3.028-11.28-13.1-7.917-7.53 2.517-11.53 3.279-17.23 3.279-9.254 0-15.68-2.479-21.41-8.257-9.245-9.328-9.885-23.74-1.599-35.99 2.25-3.328 6.264-7.591 11.19-11.88 4.329-3.775 5.403-5.538 4.733-7.773-.453-1.512-1.242-2.364-7.962-8.589-7.769-7.198-11.31-12.76-13.11-20.56-.8901-3.869-.8079-9.309.1954-12.93 1.951-7.045 6.697-12.95 13.01-16.2 4.821-2.477 8.983-3.458 14.71-3.466 5.679-.00811 9.892.7988 17.29 3.311 10.13 3.441 11.11 2.874 13.22-7.628 1.919-9.544 4.425-15.6 8.688-20.99 3.831-4.845 9.8-8.764 15.34-10.07 2.921-.6884 9.01-.6865 11.96.00387 1.261.2951 3.722 1.235 5.468 2.09 9.696 4.743 15.52 13.85 18.55 29.02 2.084 10.43 3.084 11.01 13.2 7.569 7.286-2.476 11.62-3.315 17.11-3.314 9.018.00058 15.67 2.595 21.35 8.325 4.955 5 7.343 10.87 7.332 18.03-.0148 10.22-4.541 18.8-14.65 27.79-5.171 4.594-6.543 6.086-7.001 7.614-.6695 2.235.404 3.998 4.733 7.773 9.627 8.393 14.11 14.82 16.35 23.44.8671 3.337.7785 9.601-.1845 13.05-2.164 7.744-6.9 13.33-14.27 16.84-4.266 2.031-6.427 2.507-12.32 2.712-6.591.2293-10.01-.3423-17.91-2.991-10.78-3.614-11.61-3.146-13.81 7.742-1.904 9.449-4.319 15.25-8.597 20.66-3.781 4.782-9.432 8.58-14.82 9.957-3.321.8495-9.468.9158-12.7.1372zm-4299-1.718c-1.261-.2836-3.798-1.259-5.637-2.168-2.74-1.354-3.855-2.17-6.174-4.515-5.722-5.786-8.28-12.48-7.834-20.49.3254-5.852 1.83-10.01 6.852-18.94 3.012-5.355 3.694-7.05 3.699-9.197.0061-2.657-2.132-4.951-6.844-7.344-4.197-2.132-6.528-1.99-8.97.5461-.7972.8277-2.908 3.929-4.692 6.892-5.566 9.247-8.519 12.62-13.79 15.74-1.455.8607-3.916 1.988-5.468 2.505-2.519.8392-3.371.9424-7.938.9613-4.004.01662-5.575-.1194-7.232-.6263-10.95-3.351-17.82-12.41-17.82-23.52 0-10.14 5.919-19.21 15.47-23.73 4.451-2.102 7.963-2.7 17.86-3.042 8.955-.3097 10.29-.5574 12.08-2.244 1.16-1.09 1.85-3.823 1.85-7.324 0-3.501-.6907-6.234-1.85-7.324-1.79-1.682-3.138-1.934-11.92-2.229-6.008-.2022-9.264-.4757-11.78-.9893-12.65-2.584-21.72-13.36-21.72-25.79 0-10.76 6.351-19.52 16.8-23.17 2.532-.8831 3.246-.9722 7.899-.9842 5.779-.01502 7.418.3395 12.17 2.633 5.587 2.696 9.415 6.693 14.48 15.12 5.446 9.065 6.62 10.28 9.913 10.28 2.396 0 7.396-2.446 9.594-4.694 2.733-2.795 2.627-4.885-.5477-10.83-6.694-12.53-7.825-15.53-8.124-21.52-.3941-7.878 2.204-14.59 7.86-20.31 7.445-7.528 18.3-9.315 27.88-4.589 5.617 2.772 10.1 7.777 12.47 13.91 1.415 3.669 1.941 7.189 1.695 11.34-.3347 5.647-1.639 9.348-6.159 17.48-4.019 7.227-4.522 8.563-4.366 11.61.131 2.558 7.697 7.605 11.4 7.605 3.311 0 4.48-1.156 9.278-9.172 6.502-10.86 10.8-14.92 18.8-17.76 2.896-1.028 3.384-1.094 8.195-1.102 3.978-.00684 5.586.1352 7.232.6387 7.034 2.152 12.32 6.545 15.35 12.76 1.78 3.649 2.453 6.601 2.459 10.79.0192 12.43-9.088 23.18-21.85 25.79-2.416.4943-5.723.7663-11.66.9593-8.778.2852-10.1.5328-11.91 2.232-1.16 1.09-1.85 3.823-1.85 7.324 0 3.501.6908 6.234 1.85 7.324 1.796 1.687 3.129 1.935 12.08 2.244 9.9.3424 13.41.9406 17.86 3.042 16.5 7.793 20.77 28.78 8.346 41.02-4.284 4.217-9.968 6.664-16.18 6.965-6.317.306-11.63-1.136-16.71-4.533-4.391-2.937-7.325-6.51-12.56-15.3-4.332-7.274-6.436-9.036-9.865-8.266-2.273.5106-6.267 2.68-8.112 4.406-3.33 3.115-3.041 5.408 1.773 14.05 5.438 9.763 6.958 14.65 6.59 21.17-.2457 4.361-.903 6.942-2.699 10.6-3.136 6.385-8.975 11.42-15.54 13.39-2.732.8223-9.112 1.02-11.99.3724zm4114-.4092c-7.117-1.503-13.46-6.534-17.07-13.53-3.122-6.058-3.921-10.5-3.921-21.79 0-8.944-.2396-10.6-1.698-11.75-1.845-1.451-3.943-.7392-11.72 3.977-8.277 5.017-13.73 7.029-20.44 7.537-11.44.8654-21.9-5.856-25.66-16.49-1.221-3.45-1.517-9.554-.6523-13.44 1.144-5.144 4.175-10.21 8.723-14.57 3.432-3.293 6.104-5.142 12.47-8.632 6.13-3.359 7.84-4.61 8.517-6.229 1.058-2.532-.5782-4.257-7.652-8.07-11.03-5.947-16.71-11.14-20.23-18.48-1.847-3.854-2.444-7.023-2.251-11.96.1263-3.239.3549-4.664 1.076-6.701 4.002-11.31 15.22-17.94 27.62-16.31 5.885.7743 12.63 3.52 19.55 7.955 5.444 3.489 8.541 4.617 10.22 3.72.4325-.2315 1.087-1.083 1.454-1.892.5955-1.311.6686-2.395.6756-9.979.0106-11.54.7913-15.91 3.94-22.03 4.428-8.611 13.05-14.08 22.17-14.08 7.578 0 15.47 4.106 19.9 10.36 4.816 6.794 6.203 12.47 6.205 25.38.0014 8.877.2776 10.79 1.721 11.93 1.751 1.382 4.284.6077 10.17-3.108 5.116-3.229 9.239-5.295 13.23-6.627 9.336-3.119 17.84-2.287 24.95 2.444 4.377 2.91 7.656 7.156 9.456 12.25.7207 2.037.9493 3.462 1.076 6.701.1926 4.935-.4039 8.104-2.251 11.96-3.534 7.375-9.249 12.58-20.36 18.54-5.206 2.794-6.834 4.02-7.521 5.663-1.06 2.538.5821 4.269 7.651 8.065 11.02 5.918 16.89 11.31 20.27 18.63 1.875 4.058 2.379 6.736 2.203 11.7-.2385 6.71-2.128 11.13-6.797 15.89-4.142 4.225-8.725 6.452-14.91 7.245-7.856 1.007-16.67-1.637-26.54-7.96-5.943-3.809-8.908-4.763-10.62-3.415-1.502 1.186-1.739 2.787-1.739 11.78 0 11.3-.7962 15.72-3.932 21.82-5.353 10.41-16.3 15.83-27.29 13.51zm745.8-.08994c-11.08-3.013-18.13-9.167-25.48-22.23-4.843-8.616-4.644-8.493-13.8-8.493-3.536 0-7.971-.1666-9.854-.3702-13.27-1.434-23.4-8.013-28.49-18.48-2.223-4.58-3.088-8.497-3.08-13.95.0106-8.006 2.102-14.42 7.884-24.19l3.325-5.617v-5.317l-2.641-4.398c-6.512-10.84-8.555-16.9-8.567-25.39-.0187-12.91 6.719-23.39 18.62-28.97 6.054-2.837 11.9-3.831 22.55-3.836 9.456-.0041 9.191.1561 14.07-8.531 4.396-7.821 8.485-12.84 13.45-16.51 12.3-9.088 28.07-8.583 40.13 1.285 4.326 3.539 8.212 8.65 12.43 16.34 2.209 4.031 3.975 6.16 5.743 6.92.8315.3576 2.907.4889 7.761.491 3.644.00159 8.055.1646 9.801.3623 9.647 1.092 18.62 5.5 23.81 11.7 5.815 6.942 8.33 15.16 7.401 24.19-.6932 6.737-2.722 12.2-7.562 20.36-3.62 6.106-4.208 7.691-3.701 9.976.2035.918 1.542 3.645 2.981 6.075 5.35 9.031 7.608 14.93 8.273 21.6 1.403 14.1-5.475 26.19-18.43 32.39-5.737 2.749-12.3 3.857-22.82 3.857-4.646 0-6.683.1324-7.51.4881-1.74.748-3.486 2.854-5.738 6.92-5.343 9.646-9.365 14.47-15.51 18.59-2.936 1.971-5.147 3.039-8.643 4.174-2.634.8556-3.663.9894-8.467 1.101-4.553.1054-5.882.0142-7.938-.5448zm-4670-.01126c-8.122-1.117-15.56-6.646-19.2-14.27-1.648-3.451-2.306-6.119-2.552-10.34-.3618-6.219.8305-10.4 5.747-20.16 3.709-7.361 4.373-9.481 3.688-11.79-.8129-2.738-4.832-5.743-8.632-6.456-1.822-.3418-4.083.6092-5.748 2.417-.7499.8144-3.23 4.307-5.511 7.76-4.59 6.95-7.494 10.19-11.35 12.68-5.111 3.299-8.754 4.331-15.17 4.298-3.933-.02036-4.971-.1518-7.291-.9233-4.253-1.415-7.205-3.246-10.36-6.427-4.681-4.72-6.853-10.04-6.863-16.82-.0186-12.07 8.373-22.44 20.69-25.57 2.38-.6038 5.188-.9674 9.428-1.221 11.79-.705 13.7-1.231 15.38-4.228.7761-1.386.8852-2 .8769-4.934-.0111-3.874-.7855-5.874-2.739-7.072-1.898-1.164-3.304-1.402-11.36-1.921-4.269-.2748-8.927-.7459-10.35-1.047-12.95-2.736-21.93-13.34-21.93-25.89 0-4.157.6899-7.104 2.573-10.99 1.881-3.881 6.206-8.356 9.951-10.29 7.208-3.73 15.25-4.09 22.71-1.015 6.117 2.522 9.885 6.116 15.8 15.07 4.84 7.328 6.304 9.034 8.457 9.856 1.353.5166 1.84.5411 3.476.175 2.118-.474 5.643-2.586 6.825-4.089 1.269-1.613 1.657-3.442 1.175-5.531-.2295-.994-1.922-4.822-3.762-8.507-1.84-3.685-3.852-8.225-4.472-10.09-1.049-3.155-1.128-3.735-1.14-8.33-.0139-5.568.4474-7.827 2.457-12.03 3.162-6.618 9.431-11.87 16.42-13.75 3.046-.8208 8.897-.8175 11.96.00672 11.8 3.172 19.62 14.33 18.95 27.06-.2621 4.969-1.723 9.347-5.73 17.17-1.658 3.238-3.264 6.742-3.569 7.785-.6885 2.36-.4139 4.36.8208 5.979 1.282 1.681 4.75 3.824 7.002 4.328 1.636.3662 2.124.3416 3.476-.175 2.155-.823 3.617-2.528 8.476-9.885 6.323-9.572 10.47-13.24 17.85-15.78 3.126-1.076 3.672-1.154 8.114-1.167 5.409-.01576 8.052.6003 12.52 2.919 3.742 1.94 8.07 6.417 9.954 10.3 2.102 4.327 2.696 7.205 2.492 12.07-.2003 4.779-1.256 8.29-3.654 12.15-2.898 4.663-6.384 7.84-11.26 10.26-4.486 2.227-7.163 2.755-17.46 3.442-7.902.5273-9.304.7684-11.19 1.924-1.953 1.198-2.728 3.198-2.739 7.072-.0084 2.934.1007 3.548.8768 4.934 1.671 2.984 3.618 3.525 15.16 4.214 3.202.191 6.987.593 8.412.8931 8.738 1.841 15.34 6.88 19.27 14.72 2.123 4.229 2.795 7.474 2.572 12.42-.299 6.639-2.274 11.03-7.192 15.97-2.372 2.385-3.434 3.155-6.174 4.477-9.993 4.821-21.42 3.066-29.94-4.601-2.084-1.873-5.632-6.558-8.979-11.86-5.262-8.326-7.722-9.641-13.2-7.052-2.56 1.21-4.802 3.429-5.359 5.304-.686 2.31-.0091 4.483 3.671 11.78 1.795 3.561 3.805 8.061 4.466 10 1.14 3.346 1.202 3.783 1.209 8.467.008 5.575-.4633 7.873-2.46 11.99-2.546 5.255-6.265 9.083-11.45 11.79-4.232 2.207-9.533 3.155-14.12 2.524zm1683-.02316c-7.976-1.122-15.43-6.7-19.03-14.25-2.01-4.206-2.471-6.465-2.457-12.03.01164-4.595.09102-5.175 1.14-8.33.6202-1.865 2.643-6.426 4.495-10.14 3.908-7.828 4.47-9.759 3.546-12.18-.9959-2.607-4.866-5.386-8.43-6.053-1.868-.3497-4.108.5826-5.79 2.41-.75.8144-3.23 4.307-5.511 7.76-4.591 6.95-7.494 10.19-11.35 12.68-5.033 3.248-8.746 4.318-14.99 4.32-3.639.00116-4.872-.1431-7.056-.8248-4.378-1.367-7.284-3.099-10.44-6.224-4.791-4.741-6.783-9.251-7.099-16.07-.1563-3.373-.06491-4.554.5362-6.931 1.977-7.819 7.001-13.98 14.36-17.6 4.944-2.434 7.986-3.02 19.05-3.67 8.219-.4831 10.02-1.102 11.53-3.968.6671-1.264.7983-2.064.7983-4.865 0-3.874-.7705-5.871-2.729-7.072-1.893-1.161-3.295-1.398-11.36-1.917-4.269-.2748-8.927-.7468-10.35-1.049-10.68-2.266-18.7-9.821-21.29-20.06-.6011-2.376-.6925-3.558-.5362-6.931.3161-6.815 2.309-11.32 7.099-16.07 7.318-7.243 18.12-9.219 28.03-5.13 6.117 2.522 9.885 6.116 15.8 15.07 4.84 7.328 6.304 9.034 8.457 9.856 1.353.5166 1.84.5411 3.476.175 2.118-.474 5.643-2.586 6.825-4.089 1.269-1.613 1.657-3.442 1.175-5.531-.2293-.994-1.922-4.822-3.762-8.507-1.84-3.685-3.852-8.225-4.472-10.09-1.049-3.155-1.128-3.735-1.14-8.33-.01376-5.568.4473-7.827 2.457-12.03 2.574-5.388 6.831-9.579 12.33-12.14 3.788-1.767 6.034-2.256 10.23-2.231 4.137.02501 6.98.6955 10.55 2.489 9.365 4.701 14.79 14.32 14.22 25.2-.2635 4.996-1.687 9.233-5.887 17.52-3.748 7.394-4.326 9.411-3.396 11.85.7182 1.881 2.69 3.722 5.315 4.963 5.348 2.528 7.855 1.167 13.08-7.106 6.94-10.98 11.39-15.1 19.21-17.8 3.126-1.076 3.672-1.154 8.114-1.167 4.032-.01175 5.169.1129 7.408.8123 3.883 1.213 7.115 3.039 9.838 5.559 2.939 2.721 4.972 5.766 6.472 9.696 1.087 2.846 1.134 3.181 1.138 8.084.00388 4.702-.0755 5.343-.9839 7.938-3.336 9.529-11.41 16.32-21.58 18.16-1.164.2103-5.53.6101-9.701.8885-7.902.5273-9.303.7684-11.19 1.924-1.953 1.198-2.728 3.198-2.739 7.072-.00847 2.934.1009 3.548.877 4.934 1.671 2.984 3.618 3.525 15.16 4.214 3.201.191 6.987.593 8.412.8931 8.738 1.841 15.34 6.88 19.27 14.72 2.123 4.229 2.795 7.474 2.572 12.42-.2942 6.534-2.276 11.02-6.973 15.77-9.693 9.803-25.48 9.838-36.34.07993-2.076-1.867-5.604-6.519-9.02-11.9-5.288-8.324-7.681-9.599-13.16-7.009-2.56 1.21-4.802 3.429-5.359 5.304-.6883 2.318-.00741 4.487 3.733 11.9 1.829 3.624 3.836 8.124 4.461 10 1.057 3.18 1.136 3.751 1.147 8.352.01411 5.576-.4547 7.866-2.455 11.99-4.122 8.507-11.84 13.77-21.15 14.42-1.358.09432-3.422.0375-4.586-.1263zm-189.4-.6772c-5.096-1.399-8.581-3.491-12.11-7.271-4.238-4.538-6.672-10.29-7.016-16.6-.3542-6.485.7161-10.26 5.823-20.56l3.426-6.907v-2.713c0-2.501-.08467-2.818-1.087-4.069-1.498-1.87-5.801-4.061-7.975-4.061-3.198 0-4.898 1.618-10.44 9.937-4.67 7.008-7.284 9.936-11.19 12.53-14.54 9.675-33.81 3.566-38.82-12.31-3.433-10.87 1.108-22.89 11.07-29.32 5.115-3.3 9.992-4.504 20.74-5.121 3.739-.2146 7.174-.5997 8.28-.9284 2.616-.7768 4.336-2.547 4.862-5.003 1.19-5.555-.5955-9.522-4.855-10.79-1.091-.324-4.577-.7173-8.281-.9343-10.82-.6341-15.63-1.821-20.75-5.118-13.85-8.933-16.37-27.81-5.2-38.95 7.178-7.159 17.75-9.276 27.62-5.53 6.263 2.377 10.45 6.251 16.42 15.21 5.657 8.478 7.281 10.05 10.35 10.05 2.135 0 4.355-.8279 6.396-2.385 2.479-1.891 3.118-3.23 2.931-6.137-.1362-2.113-.4904-3.036-3.537-9.207-5.073-10.28-6.14-14.06-5.787-20.52.5803-10.62 7.316-19.76 17.15-23.27 2.829-1.01 3.372-1.086 7.803-1.081 4.3.00407 5.037.1004 7.585.9908 7.846 2.742 13.8 9.042 16.4 17.34.4893 1.563.8428 3.834.9638 6.19.3232 6.287-.9656 10.94-5.43 19.61-3.043 5.911-3.997 8.503-3.997 10.87 0 2.666 1.423 4.494 4.891 6.281 3.261 1.681 5.585 1.808 7.634.4169 1.797-1.219 2.038-1.522 6.86-8.619 2.307-3.395 5.015-7.088 6.018-8.206 4.365-4.865 10.2-8.07 16.47-9.04 3.381-.5238 5.509-.4953 8.707.1166 9.224 1.765 16.11 7.741 19.14 16.6.8301 2.433.9659 3.406.9853 7.056.01623 3.01-.1577 4.896-.6015 6.526-2.559 9.403-9.894 16.66-19.47 19.26-2.6.707-6.324 1.146-13.05 1.54-7.113.4161-9.33.9697-11.14 2.782-2.772 2.774-2.772 9.323 0 12.1 1.83 1.831 3.951 2.345 11.46 2.776 3.514.2017 7.77.599 9.457.883 10.86 1.828 18.89 8.535 22.38 18.69.8654 2.519.9684 3.314.9613 7.408-.0067 3.992-.1281 4.952-.937 7.408-2.173 6.601-6.516 11.53-12.77 14.5-6.538 3.105-13.6 3.349-20.64.7138-6.398-2.395-10.5-6.168-16.55-15.22-5.567-8.331-7.337-10.08-10.25-10.12-3.072-.04239-7.511 2.45-8.91 5.002-.5345.9758-.6445 1.729-.5242 3.593.1369 2.122.5087 3.096 3.708 9.701 5.135 10.6 5.977 13.61 5.606 20.03-.6177 10.68-7.365 19.83-17.14 23.24-4.028 1.405-9.799 1.667-13.62.6173zm374.7.09598c-7.153-1.511-13.72-6.764-17.13-13.71-1.769-3.6-2.444-6.212-2.697-10.43-.3718-6.194.7257-10.1 5.764-20.52 3.987-8.245 4.395-10.06 2.853-12.68-2.012-3.423-7.447-5.744-10.62-4.537-1.771.6735-3.807 3.023-7.764 8.961-4.488 6.736-7.338 10.07-10.61 12.4-5.176 3.694-9.905 5.233-16.07 5.231-4.763-.00144-7.213-.5697-11.64-2.701-2.43-1.169-3.569-2.014-6.004-4.457-3.089-3.098-4.703-5.619-5.987-9.354-3.657-10.63.9197-23.19 10.77-29.56 5.147-3.33 10.04-4.594 20.1-5.198 9.379-.5628 11.72-1.329 13.31-4.351 1.171-2.227 1.126-6.876-.08572-9.023-.4833-.8559-1.276-1.845-1.761-2.197-1.468-1.067-4.801-1.676-11.29-2.064-3.395-.2031-7.503-.6132-9.127-.9114-13.81-2.534-23.06-12.99-23.1-26.08-.012-4.233.6403-6.999 2.587-10.97 4.376-8.931 14.75-14.47 24.89-13.28 9.995 1.17 16.03 5.568 23.94 17.45 4.08 6.127 6.067 8.436 7.84 9.11 3.177 1.208 8.612-1.113 10.62-4.537 1.538-2.619 1.132-4.435-2.837-12.68-1.843-3.829-3.672-7.85-4.064-8.935-2.984-8.25-2.236-16.85 2.108-24.22 1.596-2.71 5.965-7.02 8.771-8.651 1.26-.7326 3.561-1.754 5.113-2.27 2.451-.8144 3.401-.9376 7.232-.9376s4.78.1232 7.232.9376c10.72 3.562 17.8 13.55 17.81 25.14.005998 5.465-1.042 8.876-5.714 18.59-4.154 8.634-4.559 10.39-3.007 13.03 2.139 3.64 7.772 5.861 10.99 4.333 1.785-.8471 3.354-2.718 7.534-8.984 5.683-8.519 9.027-11.91 14.39-14.59 4.009-2.005 7.452-2.816 11.96-2.818 4.749-.00144 7.737.6763 11.82 2.68 3.885 1.908 8.365 6.246 10.3 9.97 2.503 4.828 3.422 9.75 2.75 14.73-1.218 9.007-6.67 16.45-15.05 20.55-3.32 1.623-7.34 2.556-12.99 3.014-13.34 1.083-14.01 1.208-15.9 2.987-2.227 2.101-2.891 7.366-1.34 10.63 1.386 2.92 4.09 3.803 13.36 4.359 10.12.6071 14.9 1.843 20.07 5.179 5.589 3.614 9.623 9.333 11.52 16.34.5708 2.104.5846 8.111.0247 10.76-.2462 1.164-1.163 3.606-2.038 5.425-1.32 2.746-2.08 3.796-4.471 6.174-3.194 3.177-5.676 4.792-9.289 6.043-5.469 1.894-11.61 1.893-17.26-.00319-6.924-2.324-11.37-6.333-18.03-16.25-4.172-6.217-5.989-8.324-7.753-8.995-3.28-1.247-9.036 1.353-10.73 4.845-1.31 2.705-.9006 4.408 2.986 12.43 5.03 10.38 6.127 14.28 5.755 20.47-.2533 4.218-.9285 6.829-2.697 10.43-5.135 10.45-16.3 16.05-27.36 13.71zm-559-.1317c-7.983-.9868-15.56-6.608-19.21-14.24-1.592-3.334-2.288-6.064-2.548-9.989-.405-6.115.8075-10.6 5.587-20.65 3.325-6.992 3.903-9.271 2.971-11.71-1.069-2.8-4.627-5.14-7.813-5.14-3.303 0-5.094 1.571-10.05 8.819-4.428 6.473-7.013 9.52-9.989 11.78-2.996 2.274-5.831 3.736-9.404 4.85-3.814 1.189-10.66 1.192-14.45.00677-4.528-1.414-7.281-3.07-10.62-6.388-4.842-4.814-7.042-10.03-7.074-16.77-.03528-7.527 2.847-14.09 8.471-19.3 5.547-5.136 11.39-7.147 23.33-8.038 8.122-.6055 10.16-1.105 11.91-2.92 1.468-1.522 1.847-2.661 1.847-5.548 0-2.887-.3792-4.027-1.847-5.548-1.736-1.8-3.844-2.325-11.73-2.927-12.45-.9486-17.98-2.864-23.69-8.205-5.526-5.17-8.328-11.63-8.293-19.13.01976-4.236.6188-6.735 2.579-10.76 1.171-2.403 2.063-3.602 4.494-6.039 2.556-2.561 3.562-3.295 6.385-4.655 7.83-3.773 16.08-3.603 23.99.4941 5.14 2.664 8.128 5.726 14.09 14.43 4.997 7.3 6.752 8.827 10.13 8.812 3.213-.01456 6.658-2.31 7.748-5.162.8978-2.351.2794-4.75-3.031-11.76-4.758-10.07-5.892-14.21-5.54-20.25.2441-4.195.9052-6.867 2.551-10.31 4.192-8.778 12.9-14.36 22.39-14.36 11.94 0 21.98 8.512 24.51 20.79 1.466 7.095.3048 12.72-4.877 23.64-3.301 6.954-4.045 9.516-3.421 11.78.816 2.961 4.543 5.622 7.896 5.637 3.373.01527 5.076-1.468 10.12-8.812 4.16-6.059 6.822-9.219 9.752-11.57 8.175-6.569 19.06-7.897 28.16-3.435 5.171 2.535 8.707 6.014 11.13 10.95 1.892 3.852 2.451 6.313 2.451 10.78 0 7.616-2.76 13.87-8.448 19.13-5.595 5.18-11.21 7.081-23.65 8.01-2.813.2098-5.671.478-6.35.596-4.954.8606-7.104 3.241-7.109 7.873-.00317 2.747.436 4.03 1.901 5.548 1.75 1.815 3.79 2.315 11.91 2.92 6.348.4733 10.4 1.149 13.77 2.296 8.476 2.883 15.44 10.45 17.45 18.96.6805 2.887.6788 9.049-.00317 11.74-.2928 1.156-1.159 3.373-1.924 4.925-2.499 5.069-5.824 8.34-11.13 10.95-7.511 3.693-15.98 3.487-23.83-.5802-4.924-2.548-8.654-6.371-14.14-14.49-3.394-5.024-5.654-7.6-7.262-8.278-3.834-1.617-9.509 1.108-10.72 5.146-.6579 2.196.0441 4.669 3.24 11.41 1.574 3.323 3.437 7.716 4.14 9.76 1.228 3.576 1.276 3.907 1.281 8.657.00459 5.575-.4685 7.877-2.463 11.99-4.805 9.916-14.96 15.59-25.56 14.28zm747.9-.3205c-8.081-1.119-15.33-6.441-19.03-13.96-1.758-3.58-2.455-6.218-2.726-10.3-.3951-5.965.7324-10.28 5.296-20.26 3.934-8.604 4.22-10.82 1.77-13.68-2.175-2.541-5.084-3.59-7.832-2.824-2.198.6129-4.394 2.859-8.292 8.481-5.743 8.282-9.14 11.69-14.34 14.39-14 7.267-31.03.844-35.99-13.57-4.318-12.55 2.63-26.87 15.59-32.14 3.244-1.318 7.49-2.134 14.4-2.767 9.603-.8797 12.01-1.757 13.44-4.9 1.179-2.597.7056-6.542-1.014-8.444-1.667-1.843-4.022-2.457-12.42-3.238-7.151-.6646-11.35-1.496-14.72-2.912-7.899-3.325-13.62-9.857-15.82-18.08-.8244-3.074-.8463-8.933-.0448-11.99.9497-3.627 3.134-7.701 5.534-10.32 9.161-9.997 24.58-10.95 35.7-2.214 2.602 2.045 5.759 5.766 9.656 11.38 5.973 8.607 8.818 10.25 13.58 7.838 1.984-1.004 3.769-3.209 4.031-4.982.3397-2.293-.2826-4.379-3.232-10.83-3.156-6.902-4.486-10.65-5.079-14.33-.5105-3.165-.2568-8.226.5655-11.29 1.383-5.153 5.06-10.74 9.062-13.78 2.555-1.936 6.994-4.101 9.797-4.777 2.724-.6573 8.486-.5616 11.29.1875 7.007 1.873 13.22 7.085 16.38 13.75 1.611 3.396 2.302 6.09 2.56 9.985.3965 5.986-.7048 10.22-5.259 20.21-3.972 8.717-4.268 11.05-1.758 13.82 3.139 3.474 7.332 3.933 10.57 1.158.7468-.6391 3.058-3.547 5.137-6.462 2.079-2.915 4.605-6.288 5.614-7.495 7.708-9.225 19.63-12.69 30.29-8.795 7.296 2.663 12.73 8.432 15.14 16.06 1.013 3.213 1.11 9.447.2007 12.88-2.197 8.287-8.417 15.22-16.43 18.32-3.405 1.316-7.225 2.028-14.41 2.687-9.71.8897-11.81 1.712-13.26 5.188-1.098 2.627-.3771 6.83 1.449 8.452 1.308 1.162 3.914 2.025 7.209 2.39 1.827.202 5.466.5979 8.085.8797 8.331.8963 13.62 2.792 18.25 6.537 4.238 3.431 7.737 8.84 9.128 14.11.8036 3.044.8153 8.927.02364 11.99-4.071 15.77-21.94 23.17-36.97 15.29-4.89-2.563-7.852-5.595-14.31-14.65-3.939-5.524-5.717-7.315-7.985-8.046-3.284-1.058-7.935 1.532-9.055 5.043-.7923 2.482-.211 4.549 3.58 12.74 1.174 2.536 2.704 6.277 3.4 8.315 1.211 3.544 1.266 3.917 1.279 8.643.01517 5.566-.4445 7.816-2.46 12.03-4.653 9.739-15.32 15.69-25.57 14.28zm1682-.03046c-12.37-1.952-21.47-12.98-21.47-26.03 0-4.008.878-8.553 3.048-15.78 2.075-6.906 2.568-9.944 1.929-11.88-.5824-1.765-2.15-3.132-3.855-3.361-2.59-.3475-4.189.7789-11.18 7.874-6.703 6.807-9.701 9.293-13.53 11.22-7.886 3.971-17.69 3.737-25.09-.6004-1.07-.6263-3.233-2.409-4.807-3.961-2.406-2.372-3.118-3.357-4.464-6.174-.8809-1.843-1.813-4.225-2.072-5.292-.6636-2.736-.5651-8.826.1884-11.64 1.406-5.254 4.824-10.6 8.894-13.92 4.28-3.486 8.872-5.423 18.13-7.647 8.548-2.053 10.04-2.602 11.9-4.387 1.582-1.516 1.595-1.546 1.433-3.498-.3115-3.758-2.145-4.819-12.78-7.396-9.872-2.393-14.34-4.259-18.69-7.796-4.07-3.316-7.488-8.665-8.894-13.92-.7535-2.816-.852-8.906-.1884-11.64.2589-1.067 1.154-3.369 1.989-5.115 5.805-12.13 20.79-17.2 33.49-11.33 4.436 2.049 6.868 3.99 13.96 11.14 7.544 7.606 9.113 8.729 11.71 8.381 1.703-.2284 3.272-1.595 3.853-3.356.6378-1.933.1912-4.684-1.902-11.72-2.504-8.414-3.235-12.72-2.962-17.42.2438-4.186.9056-6.859 2.551-10.31 3.255-6.815 9.236-11.84 16.39-13.76 3.078-.8266 8.916-.8266 11.99 0 7.151 1.92 13.13 6.942 16.39 13.76 1.645 3.446 2.307 6.119 2.551 10.31.2738 4.701-.4579 9.003-2.962 17.42-2.76 9.274-2.832 11.67-.4234 13.98.9102.8722 1.358 1.028 2.948 1.028 2.635 0 4.515-1.396 10.89-8.085 8.901-9.341 14.12-12.54 22.21-13.62 5.263-.7004 11.49.5564 16.08 3.247 2.994 1.755 7.403 6.335 8.939 9.285 2.149 4.129 2.906 7.172 2.896 11.64-.0106 4.615-.6269 7.308-2.583 11.29-2.402 4.886-6.302 8.932-11.35 11.78-3.011 1.696-7.136 3.081-14.74 4.952-10.11 2.486-12 3.59-12.3 7.197-.1432 1.724-.0592 2.003.9444 3.146 1.601 1.823 3.627 2.633 11.33 4.526 11.73 2.884 16.35 5.008 20.99 9.643 9.885 9.885 10.47 24.92 1.351 34.77-5.429 5.864-13.25 8.685-21.49 7.749-7.951-.9035-12.24-3.506-22.01-13.36-7.582-7.645-9.106-8.73-11.75-8.375-1.087.1458-1.771.5205-2.6 1.426-2.134 2.329-1.986 4.698.9013 14.36 3.72 12.45 3.781 19.59.2336 26.96-3.259 6.773-9.434 11.99-16.24 13.72-2.751.6996-7.241.9592-9.747.5637zm-4115-.5757c-7.153-1.511-13.72-6.764-17.13-13.71-1.796-3.655-2.453-6.237-2.699-10.6-.358-6.352.7821-10.16 6.257-20.89 3.409-6.683 3.988-8.695 3.194-11.1-1.128-3.419-6.664-6.463-10.05-5.528-2.176.6008-3.976 2.623-8.605 9.666-6.181 9.404-9.965 13.02-16.32 15.58-5.449 2.201-12.86 2.488-17.93.6953-7.775-2.75-13.21-8.108-15.79-15.57-.867-2.505-.9787-3.338-.9934-7.408-.014-3.859.1146-5.004.8114-7.223 2.161-6.883 6.573-12.35 12.78-15.83 4.567-2.564 8.698-3.444 18.45-3.929 7.945-.3953 10.15-.856 12.04-2.52 2.99-2.625 2.99-9.273 0-11.9-1.882-1.653-4.158-2.142-11.72-2.521-7.912-.396-10.88-.8048-14.3-1.968-6.601-2.245-12.53-7.351-15.54-13.38-1.928-3.865-2.541-6.688-2.528-11.63.0111-4.196.1036-4.845 1.088-7.626 5.387-15.22 23.26-21.18 37.79-12.61 3.754 2.215 7.379 6.228 11.9 13.18 5.714 8.778 7.113 10.14 10.44 10.14 3.155 0 7.177-2.546 8.312-5.263 1.112-2.662.5142-4.644-4.186-13.87-3.789-7.44-4.873-10.8-5.127-15.87-.2747-5.491.9982-10.6 3.846-15.44 1.596-2.71 5.966-7.02 8.771-8.651 12.45-7.242 28.23-2.288 34.57 10.86 2.22 4.602 2.625 6.42 2.632 11.82.0077 6.412-.687 8.805-5.02 17.29-4.693 9.187-5.304 11.21-4.19 13.86 1.133 2.697 5.195 5.274 8.314 5.274 3.325 0 4.706-1.342 10.44-10.14 5.852-8.984 9.751-12.68 16.07-15.23 3.683-1.487 6.759-1.968 11.27-1.762 6.871.3134 11.66 2.385 16.44 7.11 2.359 2.331 3.15 3.416 4.506 6.179 2.136 4.351 2.813 7.552 2.575 12.17-.65 12.63-10.19 22.84-23.24 24.86-1.299.2015-5.427.5197-9.172.7072-7.593.38-9.865.8678-11.75 2.522-2.904 2.55-3.016 8.833-.206 11.64 1.901 1.902 3.917 2.359 12.25 2.773 9.755.4854 13.89 1.365 18.45 3.929 6.04 3.391 10.24 8.485 12.6 15.29.8812 2.54.9795 3.299.9836 7.585.0042 4.422-.0728 4.98-1.075 7.803-6.124 17.24-27.99 22.13-41.95 9.387-2.623-2.395-4.878-5.356-9.097-11.95-3.404-5.319-5.434-7.465-7.616-8.053-3.352-.9028-8.818 2.151-9.941 5.555-.7966 2.414-.2195 4.418 3.212 11.15 5.48 10.76 6.596 14.49 6.238 20.84-.2457 4.361-.9031 6.942-2.699 10.6-5.135 10.45-16.3 16.05-27.36 13.71zm3553-.272c-10.37-2.407-17.82-10.21-19.82-20.78-.7497-3.948-.459-8.946.7627-13.12.5115-1.746 2.227-6.191 3.813-9.878 2.768-6.435 2.883-6.811 2.891-9.41.0067-2.202-.1294-2.893-.7299-3.704-.9733-1.315-2.751-2.5-4.43-2.952-3.36-.9047-5.857 1.028-12.09 9.355-4.515 6.034-7.268 8.968-10.43 11.12-4.9 3.328-9.366 4.697-15.35 4.709-9.934.01876-18.15-4.984-22.42-13.65-2.836-5.759-3.246-12.53-1.13-18.67 1.486-4.311 2.97-6.645 6.437-10.12 5.826-5.846 10.4-7.615 23.64-9.149 6.958-.8064 9.005-1.317 10.81-2.696 1.546-1.179 2.24-2.759 2.24-5.099 0-5.056-2.492-6.571-12.79-7.774-11.65-1.361-15-2.348-20.4-6.008-2.42-1.641-6.088-5.566-7.681-8.221-4.315-7.189-4.744-16.54-1.091-23.78 2.649-5.254 6.187-8.722 11.45-11.23 8.322-3.958 18.09-3.151 26.08 2.155 3.021 2.005 6.342 5.512 10.45 11.03 3.945 5.303 6.651 8.304 8.246 9.143 3.313 1.743 8.549-.7219 9.229-4.345.4519-2.409-.1542-4.705-2.997-11.36-3.575-8.366-4.621-11.91-4.867-16.47-.4279-7.939 2.144-14.75 7.659-20.28 3.055-3.062 6.052-4.927 10.05-6.256 2.452-.8144 3.402-.9376 7.232-.9376 3.83 0 4.78.1232 7.232.9376 10.72 3.562 17.8 13.55 17.81 25.14.0053 4.745-1.174 9.135-4.497 16.73-3.498 8-4.181 10.8-3.238 13.29.8682 2.292 3.71 4.123 6.351 4.093 3.067-.03459 4.615-1.367 10.09-8.688 6.235-8.331 9.338-11.3 14.4-13.79 4.338-2.129 7.235-2.809 11.99-2.811 4.546-.00254 7.166.5906 11.29 2.556 5.118 2.44 9.059 6.505 11.48 11.84 1.699 3.747 2.203 6.51 2.001 10.96-.32 7.045-2.534 11.99-7.663 17.11-5.859 5.85-10.37 7.593-23.63 9.131-7 .812-9.343 1.444-11.15 3.007-2.68 2.322-2.68 7.269 0 9.591 1.804 1.563 4.131 2.19 11.14 3 13.1 1.514 17.77 3.295 23.5 8.962 5.036 4.983 7.535 10.45 7.816 17.11.2621 6.204-1.253 11.12-4.964 16.13-6.116 8.243-18.22 11.64-28.57 8.023-6.737-2.354-10.53-5.641-17.87-15.49-3.691-4.952-5.567-6.992-7.239-7.872-2.971-1.565-7.749.3301-8.972 3.558-.4812 1.27-.478 3.565.0074 5.314.2089.7524 1.564 4.147 3.012 7.544 3.961 9.293 4.482 11.26 4.511 17.02.0278 5.539-.4608 7.83-2.595 12.17-3.22 6.547-9.205 11.6-15.89 13.42-2.834.7719-8.552.96-11.11.3657zm185.9-.1976c-3.348-.8909-4.874-1.571-7.652-3.411-4.846-3.21-8.661-8.476-10.57-14.59-.7094-2.271-.8226-3.345-.8001-7.585.0311-5.799.6199-8.167 3.883-15.61 5.028-11.46 5.274-14.28 1.5-17.13-1.779-1.344-3.879-1.863-5.529-1.369-2.458.7366-4.153 2.39-8.805 8.592-2.52 3.359-5.578 7.112-6.795 8.339-7.743 7.808-18.35 10.41-28.31 6.95-3.538-1.23-6.049-2.848-9.047-5.83-4.778-4.751-6.733-9.216-6.997-15.98-.2008-5.148.3795-7.908 2.63-12.51 2.602-5.32 7.417-9.944 12.95-12.43 3.935-1.771 7.016-2.451 15.22-3.361 7.955-.8828 9.857-1.387 11.76-3.122 1.322-1.203 1.932-2.722 1.932-4.809 0-2.869-1.213-4.78-3.892-6.134-1.244-.6286-5.106-1.292-12.56-2.159-6.356-.7391-9.556-1.582-13.65-3.598-2.854-1.406-3.852-2.151-6.723-5.022-2.876-2.875-3.614-3.864-5.018-6.723-2.273-4.626-2.828-7.257-2.641-12.52.2424-6.815 2.159-11.22 6.982-16.04 2.98-2.98 5.494-4.601 9.053-5.839 6.662-2.317 13.64-1.95 20.04 1.054 5.309 2.489 8.533 5.536 15.07 14.24 4.649 6.191 6.35 7.852 8.782 8.581 1.753.5252 4.218-.1393 5.858-1.579 3.414-2.997 3.13-5.643-1.812-16.91-3.263-7.44-3.852-9.807-3.883-15.61-.0303-5.691.5454-8.131 3.08-13.05 2.152-4.178 6.392-8.329 10.72-10.49 4.309-2.155 7.617-2.874 12.23-2.66 10.61.4918 19.44 7.684 22.86 18.62.7094 2.271.8227 3.345.8001 7.585-.031 5.792-.6121 8.133-3.874 15.6-5.046 11.55-5.286 14.28-1.509 17.13 1.779 1.344 3.879 1.863 5.529 1.369 2.472-.7408 4.22-2.422 8.418-8.096 4.613-6.236 8.463-10.41 11.52-12.5 13.55-9.256 31.77-4.562 38.16 9.832 1.37 3.088 1.919 5.902 1.919 9.826 0 7.035-2.321 12.69-7.358 17.94-5.09 5.297-10.59 7.667-20.54 8.858-8.682 1.038-10.31 1.306-12.17 2.004-4.792 1.793-6.126 7.274-2.672 10.98 1.443 1.547 4.176 2.334 10.77 3.102 14.1 1.64 18.43 3.272 24.22 9.127 3.376 3.412 4.936 5.834 6.461 10.03 1.352 3.719 1.706 9.902.7913 13.81-1.614 6.889-6.658 13.15-13.07 16.23-3.881 1.865-6.467 2.419-11.29 2.419-5.096 0-7.476-.5575-12.12-2.837-4.566-2.243-8.286-5.845-14.24-13.79-4.654-6.21-6.346-7.866-8.784-8.597-2.537-.7601-6.208.9949-7.563 3.616-.7069 1.367-.6392 4.423.1482 6.701.3623 1.049 1.72 4.353 3.016 7.343 3.683 8.493 4.209 10.54 4.237 16.44.0261 5.692-.5525 8.143-3.081 13.05-2.19 4.253-6.398 8.345-10.83 10.53-1.843.9097-4.462 1.886-5.82 2.169-3.376.7044-7.919.6344-10.94-.1684zm187 .02077c-5.096-1.399-8.581-3.491-12.11-7.271-4.296-4.6-6.686-10.31-7.017-16.76-.3097-6.031.7669-10.03 5.738-21.33 3.055-6.941 3.089-10.01.1401-12.68-1.792-1.619-3.868-2.187-5.97-1.633-2.783.7336-4.229 2.227-10.49 10.83-5.56 7.641-11.1 11.85-18.11 13.75-3.134.8494-9.92.8654-13.03.03082-6.785-1.819-12.9-6.691-15.79-12.59-.8096-1.649-1.713-4.03-2.008-5.292-.6869-2.938-.688-8.696-.0025-11.64.8862-3.809 3.411-8.45 6.254-11.49 5.467-5.854 10.96-8.286 21.47-9.512 7.321-.8536 11.17-1.518 12.4-2.141 2.679-1.354 3.892-3.265 3.892-6.134 0-2.869-1.213-4.78-3.892-6.134-1.244-.6286-5.106-1.292-12.56-2.159-6.356-.7391-9.556-1.582-13.65-3.598-2.854-1.406-3.852-2.151-6.723-5.022-2.876-2.876-3.613-3.864-5.018-6.723-2.055-4.184-2.713-6.965-2.713-11.47 0-4.379.659-7.278 2.505-11.02 4.208-8.527 13.89-14.03 23.6-13.4 4.115.2666 6.962 1.044 10.88 2.971 4.264 2.094 8.535 6.098 12.95 12.14 5.88 8.044 7.68 9.808 10.6 10.39 1.54.3079 3.836-.4252 5.267-1.682 3.474-3.05 3.205-5.642-1.758-16.96-3.263-7.44-3.852-9.807-3.883-15.61-.0226-4.24.0906-5.314.8001-7.585 2.647-8.474 8.548-14.76 16.46-17.52 2.552-.8918 3.278-.9863 7.585-.9863 4.306 0 5.033.09449 7.585.9863 7.911 2.765 13.81 9.046 16.46 17.52.7095 2.271.8227 3.345.8001 7.585-.031 5.799-.6198 8.167-3.883 15.61-5 11.4-5.258 13.88-1.762 16.95 1.203 1.056 3.161 1.833 4.614 1.83 1.396-.00292 4.279-1.678 5.734-3.332.811-.9212 2.866-3.603 4.567-5.96 6.68-9.254 12.08-13.57 19.53-15.61 3.118-.8532 9.903-.8761 13.03-.04413 6.711 1.784 12.92 6.745 15.78 12.61 1.974 4.045 2.563 6.576 2.563 11.02 0 7.152-2.282 12.73-7.369 18.03-4.744 4.937-10.6 7.615-18.96 8.667-1.721.2166-5.034.6292-7.362.9167-5.013.6191-6.386.9701-7.971 2.038-4.345 2.928-3.928 9.161.7736 11.56 1.453.7414 4.998 1.374 12.75 2.275 6.366.7399 9.599 1.593 13.67 3.606 2.843 1.405 3.863 2.167 6.723 5.023 2.879 2.874 3.612 3.856 5.018 6.718 2.282 4.645 2.831 7.26 2.628 12.52-.1887 4.878-.9102 7.561-2.982 11.09-4.74 8.067-13.65 12.8-23.05 12.25-4.074-.238-6.923-1.012-10.92-2.965-2.923-1.43-3.829-2.115-7.089-5.362-2.156-2.147-5.046-5.549-6.829-8.037-4.192-5.851-5.671-7.458-7.765-8.433-2.096-.9761-2.761-1.016-4.815-.2916-2.883 1.017-4.623 3.355-4.601 6.182.0191 2.448.4928 3.912 3.429 10.59 3.948 8.983 4.504 11.08 4.536 17.08.0226 4.24-.0906 5.314-.8001 7.585-2.624 8.398-8.511 14.71-16.24 17.4-4.028 1.405-9.8 1.667-13.62.6173zm-2430-.2248c-1.261-.2701-3.801-1.236-5.644-2.147-4.432-2.191-8.64-6.284-10.83-10.53-2.535-4.922-3.111-7.362-3.08-13.05.03101-5.802.5735-7.976 4.092-16.4 2.978-7.133 3.466-8.658 3.466-10.83 0-3.116-1.695-5.359-4.644-6.145-3.542-.9445-5.838.7138-11.78 8.511-6.115 8.023-8.665 10.5-13.59 13.17-3.64 1.979-6.638 2.754-11.45 2.962-4.804.2077-8.389-.4691-12.32-2.326-6.34-2.993-11.29-9.138-13.1-16.26-.8854-3.491-.5436-10.26.6948-13.76 3.15-8.899 10.33-15.23 19.97-17.61 1.649-.4064 5.539-1.058 8.643-1.449 6.742-.8479 8.626-1.219 10.59-2.088 4.413-1.952 4.962-8.135.957-10.78-1.766-1.166-4.437-1.792-11.32-2.652-9.015-1.127-12.93-2.239-17.61-5.006-2.811-1.66-7.11-6.013-8.84-8.949-2.474-4.201-3.3-7.076-3.496-12.17-.1937-5.026.2332-7.327 2.12-11.42 3.038-6.598 9.039-11.45 16.46-13.3 4.152-1.037 10.24-.8178 14.31.5151 6.505 2.127 11.13 5.976 17.86 14.88 2.056 2.716 4.534 5.681 5.505 6.587 2.806 2.618 5.585 3.038 8.246 1.245 1.939-1.306 2.782-2.878 2.782-5.183 0-2.283-.4657-3.753-3.466-10.94-3.519-8.428-4.061-10.6-4.092-16.4-.03041-5.691.5455-8.131 3.08-13.05 2.19-4.253 6.398-8.345 10.83-10.53 7.331-3.619 14.53-3.623 21.84-.01266 6.038 2.98 10.6 8.424 12.97 15.48.8584 2.552.949 3.312.9452 7.938-.00493 6.066-.4705 7.914-4.354 17.29-2.807 6.775-3.184 8.009-3.187 10.44-.00434 3.955 4.032 6.943 7.838 5.803 2.008-.6016 4.376-2.959 8.699-8.661 6.161-8.126 10.17-11.71 15.65-14.02 10.71-4.498 23.56-1.406 30.11 7.24 3.521 4.653 5.085 9.278 5.085 15.03 0 4.482-.6428 7.347-2.508 11.18-2.654 5.451-6.789 9.534-12.48 12.33-3.832 1.879-7.3 2.736-14.99 3.707-10.19 1.285-11.87 1.92-13.49 5.085-.8858 1.736-.693 4.612.4131 6.166 1.661 2.333 4.118 3.131 13.07 4.248 6.992.872 10.94 1.802 14.41 3.394 6.814 3.127 11.58 8.285 14.25 15.4.9472 2.533 1.111 3.493 1.251 7.338.1848 5.081-.2621 7.441-2.17 11.45-3.234 6.8-8.907 11.38-16.43 13.27-2.501.6285-3.679.7226-7.232.5782-9.946-.4045-16.19-4.402-24.93-15.97-6.02-7.962-8.315-9.639-11.88-8.687-2.879.7678-4.644 3.032-4.644 5.96 0 2.28.6906 4.503 3.368 10.84 3.613 8.555 4.165 10.74 4.192 16.58.01944 4.235-.09507 5.315-.8039 7.576-2.323 7.411-6.88 12.94-13.27 16.09-5.1 2.517-10.64 3.231-16.06 2.069zm1120-.2853c-11.38-3.37-18.85-14.3-18.21-26.67.2392-4.635 1.161-7.86 4.466-15.62 2.837-6.658 3.717-9.657 3.38-11.52-.7161-3.963-5.101-6.388-8.776-4.852-1.945.8126-3.581 2.529-7.901 8.285-4.967 6.619-7.809 9.584-11.48 11.98-5.073 3.306-9.296 4.436-15.77 4.221-3.764-.125-4.855-.3021-7.45-1.21-16.93-5.925-21.84-26.74-9.533-40.38 5.269-5.837 11.26-8.31 23.84-9.834 3.464-.4197 7.272-1.064 8.461-1.431 3.334-1.03 5.142-3.256 5.142-6.333 0-3.078-1.808-5.303-5.147-6.334-1.191-.368-4.371-.9265-7.064-1.241-6.427-.7503-10.38-1.459-13.19-2.366-9.811-3.165-16.8-11.02-18.59-20.9-2.242-12.37 5.688-24.5 18.13-27.75 5.77-1.505 12.78-.7442 18.36 1.994 5.137 2.519 8.545 5.851 15.35 15.01 3.248 4.37 4.977 6.112 6.836 6.889 3.675 1.535 8.06-.8892 8.776-4.852.3366-1.862-.5433-4.861-3.38-11.52-3.304-7.756-4.227-10.98-4.466-15.62-.7846-15.21 10.36-27.5 24.95-27.5 11.33 0 20.41 7.059 24.04 18.7.7119 2.278.822 3.332.7923 7.585-.04057 5.925-.538 7.848-4.368 16.89-2.866 6.766-3.701 9.609-3.366 11.46.7161 3.963 5.101 6.388 8.776 4.852 1.855-.7752 3.541-2.477 6.807-6.87 6.493-8.735 9.739-11.99 14.59-14.62 10.41-5.653 23.56-3.6 31.34 4.892 11.34 12.38 6.705 32.58-9.181 40.02-3.318 1.553-8.105 2.659-15.26 3.525-7.52.9111-10.19 1.652-11.74 3.256-1.374 1.425-1.865 2.669-1.865 4.731 0 1.842.3718 2.687 1.885 4.286 1.517 1.603 4.179 2.342 11.72 3.256 7.154.8668 11.94 1.973 15.26 3.525 11.58 5.419 17.78 18.1 14.69 30.07-1.565 6.062-6.415 12.11-12.05 15.02-7.433 3.845-16.45 3.928-24.01.2213-5.145-2.523-8.393-5.7-15.51-15.18-3.362-4.475-4.823-5.943-6.699-6.729-3.642-1.526-8.083.9126-8.74 4.799-.3263 1.93.4981 4.851 3.138 11.12 3.001 7.123 3.59 8.782 4.242 11.94 2.857 13.83-5.342 27.62-18.41 30.96-3.797.9711-9.248.9069-12.82-.1509zm748.8.2626c-3.784-.9147-7.588-3.035-10.7-5.965-6.049-5.69-8.855-12.67-8.427-20.97.2388-4.629 1.145-7.798 4.48-15.67 3.829-9.041 4.174-11.15 2.3-14.02-.9948-1.525-3.38-2.777-5.291-2.777-3.141 0-5.165 1.8-11.31 10.05-8.092 10.87-15.02 14.99-25.2 14.99-7.236 0-12.91-2.296-17.82-7.22-13.38-13.4-7.027-36.02 11.83-42.1 2.879-.9289 6.947-1.665 13.05-2.362 5.907-.6746 8.372-1.345 10.06-2.738 2.933-2.418 3.119-6.552.4209-9.349-1.484-1.539-4.232-2.353-10.35-3.067-6.427-.7503-10.38-1.459-13.19-2.366-9.812-3.166-16.8-11.03-18.59-20.9-2.235-12.38 5.714-24.54 18.13-27.74 5.922-1.529 12.93-.722 18.62 2.144 5.233 2.636 7.148 4.56 16.47 16.54 1.418 1.822 3.245 3.79 4.06 4.372 3.91 2.794 9.323.6505 10.17-4.026.3348-1.852-.5002-4.695-3.366-11.46-3.336-7.875-4.242-11.04-4.48-15.67-.4279-8.294 2.378-15.28 8.427-20.97 4.739-4.458 9.965-6.52 16.55-6.53 11.25-.01734 20.39 7.098 24.01 18.69.7119 2.278.822 3.332.7924 7.585-.0406 5.925-.538 7.848-4.368 16.89-2.866 6.766-3.701 9.609-3.366 11.46.8424 4.663 6.239 6.81 10.17 4.049.8111-.5691 2.635-2.536 4.053-4.371 9.108-11.79 11.24-13.93 16.47-16.56 3.962-1.996 7.617-2.853 12.17-2.853 11.28 0 20.43 6.609 23.91 17.26 1.122 3.437 1.266 9.502.3115 13.11-1.987 7.512-7.182 13.88-14.16 17.37-3.869 1.931-8.185 2.929-17.25 3.987-6.115.7139-8.862 1.528-10.35 3.067-2.698 2.797-2.512 6.931.4208 9.349 1.69 1.393 4.154 2.064 10.06 2.738 11.22 1.282 15.79 2.663 20.99 6.354 8.515 6.04 12.72 17.02 10.33 26.99-.9981 4.166-3.949 9.024-7.355 12.11-7.586 6.865-19.47 8.26-29.08 3.415-5.233-2.636-7.148-4.56-16.47-16.54-1.418-1.822-3.245-3.79-4.06-4.372-3.91-2.794-9.323-.6505-10.17 4.026-.3376 1.867.563 4.936 3.399 11.59 3.3 7.739 4.208 10.92 4.448 15.55.5479 10.62-4.515 19.8-13.69 24.82-4.601 2.519-11.75 3.403-17.08 2.114zm-2805-.3448c-6.994-1.858-13.22-7.059-16.39-13.69-1.95-4.082-2.46-6.494-2.468-11.68-.0081-5.478.5986-8.086 3.57-15.35 4.129-10.09 4.545-11.89 3.365-14.56-.9688-2.19-2.966-3.517-5.294-3.517-3.18 0-4.869 1.409-10.46 8.724-4.05 5.301-8.295 9.676-11.28 11.63-8.408 5.497-19.5 5.832-27.98.8455-1.11-.653-3.241-2.409-4.734-3.903-11.97-11.97-7.969-32.37 7.924-40.38 3.361-1.693 7.741-2.77 16.12-3.968 4.279-.6111 7.885-1.315 8.831-1.724 4.419-1.91 5.526-6.997 2.182-10.02-1.778-1.606-3.954-2.213-11.77-3.28-8-1.093-11.25-1.891-14.94-3.664-8.949-4.303-14.65-12.57-15.24-22.11-.4319-6.929 2.06-13.6 6.878-18.42 3.192-3.193 5.604-4.704 9.841-6.165 5.712-1.969 12.67-1.68 18.51.7675 5.462 2.289 9.609 6.003 15.84 14.19 5.372 7.055 7.047 8.438 10.25 8.463 2.376.0184 4.342-1.27 5.324-3.49 1.183-2.675.7697-4.453-3.412-14.67-2.986-7.298-3.475-9.399-3.501-15.05-.0252-5.375.4493-7.68 2.437-11.84 2.446-5.12 6.599-9.337 11.63-11.82 3.778-1.859 6.686-2.548 10.76-2.548 16.19 0 27.84 15.3 24.38 32.02-.6403 3.094-2.025 7.028-4.931 14.02-1.929 4.637-2.434 7.152-1.836 9.146.8586 2.866 3.815 4.676 6.802 4.166 1.981-.3386 3.992-1.939 6.581-5.238 8.311-10.59 10.6-13.01 14.58-15.43 12.91-7.843 29.45-3.743 36.21 8.975 2.082 3.919 2.693 6.486 2.702 11.35.0068 3.651-.1339 4.865-.818 7.056-2.293 7.342-7.081 13.01-13.88 16.44-3.821 1.924-7.345 2.773-16.67 4.013-2.895.3851-6.241 1.026-7.436 1.423-6.788 2.259-6.674 9.946.179 12.06 1.065.3293 4.886 1.005 8.491 1.501 3.605.4962 7.812 1.225 9.349 1.62 5.828 1.498 11.34 4.881 14.81 9.086 10.53 12.77 6.955 31.23-7.432 38.33-7.979 3.936-17.65 3.422-25.51-1.357-3.981-2.418-6.265-4.835-14.58-15.43-3.696-4.71-6.17-6.024-9.486-5.04-1.969.5847-3.296 1.959-3.928 4.067-.6267 2.092.0205 4.664 3.05 12.13 3.783 9.317 4.208 11.01 4.215 16.76.0038 3.513-.1614 5.364-.6294 7.056-1.411 5.1-4.895 10.58-8.625 13.58-2.436 1.956-6.899 4.214-9.759 4.939-2.69.6815-9.218.6654-11.83-.02917zm2244-.00802c-3.784-.9147-7.588-3.035-10.7-5.965-6.079-5.718-8.863-12.65-8.421-20.97.2445-4.595.9528-7.147 4.323-15.57 3.568-8.916 3.884-10.88 2.201-13.65-1.275-2.1-4.663-3.143-7.145-2.199-1.559.5926-4.35 3.495-8.56 8.901-7.044 9.045-11.68 12.64-18.85 14.62-3.502.9649-10.3.878-13.7-.1753-8.489-2.627-14.21-8.101-16.82-16.1-1.187-3.631-1.344-9.942-.3397-13.58 2.086-7.559 7.106-13.63 14.16-17.13 3.974-1.97 6.909-2.711 15.91-4.016 7.724-1.12 10.14-1.873 11.61-3.611 1.863-2.214 1.863-5.421 0-7.635-1.462-1.737-3.896-2.496-11.59-3.615-8.72-1.268-11.93-2.053-15.58-3.808-7.192-3.462-12.46-9.753-14.53-17.35-.9497-3.484-.8551-9.631.2-13.03 2.184-7.039 6.491-12.01 13.14-15.16 8.331-3.945 17.94-3.126 25.98 2.213 3.041 2.022 6.718 5.849 10.92 11.36 3.447 4.525 6.533 7.7 8.046 8.275 2.529.9615 5.689.02737 7.052-2.085 1.813-2.809 1.523-4.714-2.098-13.76-3.37-8.422-4.079-10.97-4.323-15.57-.4389-8.249 2.37-15.27 8.361-20.91 4.755-4.473 10.07-6.581 16.58-6.581 4.161 0 7.118.6761 10.76 2.459 6.307 3.089 10.95 8.764 13.28 16.23.7119 2.278.822 3.332.7923 7.585-.03986 5.824-.5366 7.801-4.239 16.88-3.561 8.733-3.892 10.78-2.188 13.56 1.295 2.106 4.674 3.142 7.164 2.195 1.513-.5751 4.599-3.75 8.046-8.275 6.01-7.892 10.3-11.7 15.71-13.97 6.963-2.918 15.13-2.701 21.67.5752 6.195 3.103 10.14 7.669 12.47 14.44.8442 2.454.9722 3.374.9821 7.056.01835 6.627-1.611 11.3-5.754 16.52-4.783 6.019-11.28 9.21-21.66 10.64-10.86 1.502-13.23 2.157-14.88 4.122-1.863 2.214-1.863 5.421 0 7.635 1.463 1.738 3.883 2.491 11.61 3.611 8.677 1.258 11.87 2.041 15.56 3.813 7.194 3.459 12.49 9.788 14.52 17.34.9437 3.513.8572 9.661-.1838 13.04-2.078 6.748-6.357 11.77-12.78 15.01-3.788 1.908-6.234 2.424-11.43 2.411-4.16-.01009-4.89-.112-7.86-1.097-1.801-.597-4.42-1.761-5.821-2.587-3.267-1.925-7.933-6.6-12.32-12.35-4.001-5.237-6.83-7.966-8.605-8.299-4.263-.7998-7.353 1.669-7.324 5.852.01623 2.29.5828 4.119 3.332 10.76 2.915 7.039 3.876 10.55 4.106 15.01.6586 12.77-7.508 24.17-19.31 26.95-2.856.6732-8.631.6629-11.46-.02025zm187.5.0227c-1.261-.2701-3.801-1.236-5.643-2.147-4.432-2.191-8.64-6.284-10.83-10.53-2.535-4.922-3.11-7.362-3.08-13.05.03034-5.691.5278-7.758 3.861-16.05 2.834-7.051 3.345-8.722 3.345-10.94 0-4.364-3.968-7.15-7.861-5.518-1.916.8028-3.385 2.298-8.199 8.344-8.422 10.58-13.09 13.93-21.41 15.38-5.712.9957-10.83.2326-16.15-2.409-2.371-1.177-3.628-2.118-6.004-4.497-4.248-4.254-6.249-8.276-7.059-14.19-.9984-7.292 1.963-15.63 7.531-21.19 5.144-5.144 10.5-7.325 21.91-8.923 6.951-.9737 9.651-1.607 11.39-2.67 3.396-2.082 3.473-7.488.139-9.659-1.811-1.179-4.279-1.777-11.52-2.791-11.41-1.599-16.77-3.779-21.91-8.923-5.556-5.555-8.507-13.83-7.536-21.12.7895-5.935 2.797-9.99 7.065-14.27 2.411-2.418 3.598-3.304 6.004-4.477 6.807-3.322 13.39-3.731 20.6-1.281 5.817 1.978 10.98 6.375 17.63 15.01 4.993 6.488 6.938 8.047 10.04 8.047 1.629 0 3.404-1.09 4.553-2.795.6011-.892.8022-1.694.8022-3.2 0-2.217-.5108-3.888-3.345-10.94-3.333-8.293-3.83-10.36-3.861-16.05-.03034-5.691.5454-8.131 3.08-13.05 2.19-4.253 6.398-8.345 10.83-10.53 7.331-3.619 14.53-3.623 21.84-.01266 6.04 2.981 10.61 8.434 12.97 15.48.8428 2.514.9476 3.362.9596 7.761.01623 5.954-.4702 8.029-3.841 16.38-2.971 7.363-3.473 9.151-3.288 11.71.1217 1.687.3404 2.272 1.185 3.171 1.867 1.985 4.298 2.562 6.653 1.578 1.839-.7683 3.745-2.691 7.485-7.552 4.474-5.813 9.47-10.83 12.66-12.71 6.527-3.844 14.12-4.837 21.23-2.776 7.6 2.201 14.03 8.427 16.46 15.95 3.174 9.807-.6181 21.38-9.127 27.86-5.002 3.807-9.42 5.344-19.38 6.739-7.245 1.015-9.713 1.613-11.52 2.791-3.334 2.171-3.257 7.576.139 9.659 1.734 1.063 4.434 1.697 11.39 2.67 7.397 1.036 11.57 2.154 15.3 4.094 5.185 2.699 8.864 6.475 11.5 11.81 2.067 4.18 2.731 6.926 2.731 11.29 0 6.78-2.235 12.23-6.943 16.91-4.501 4.483-8.617 6.492-15.01 7.326-5.409.7055-11.68-.6636-16.77-3.663-3.199-1.884-8.191-6.896-12.69-12.74-5.179-6.729-7.318-8.334-10.53-7.904-2.81.3768-4.84 2.768-4.84 5.699 0 2.297.6114 4.358 3.194 10.77 3.504 8.7 3.986 10.67 4.012 16.4.0194 4.235-.09525 5.315-.804 7.576-2.323 7.411-6.88 12.94-13.27 16.09-5.1 2.517-10.64 3.231-16.06 2.069zm186.3-.01468c-6.995-1.858-13.22-7.059-16.39-13.69-1.996-4.178-2.47-6.477-2.445-11.86.02646-5.655.5151-7.756 3.502-15.05 4.181-10.22 4.595-12 3.412-14.67-.9687-2.19-2.966-3.517-5.294-3.517-3.18 0-4.869 1.409-10.46 8.724-4.05 5.301-8.295 9.676-11.28 11.63-8.408 5.497-19.5 5.832-27.98.8455-1.111-.653-3.248-2.416-4.749-3.918-12.1-12.1-7.825-32.8 8.364-40.52 3.727-1.778 7.058-2.597 14.96-3.681 8.057-1.104 10.48-1.837 12.14-3.672 2.812-3.112 1.632-7.78-2.41-9.531-1.634-.7081-3.986-1.159-11.18-2.144-6.616-.906-9.986-1.771-13.51-3.466-13.24-6.367-18.96-21.51-12.88-34.09 6.727-13.91 24.19-18.18 37.67-9.226 2.806 1.866 6.24 5.359 9.762 9.932 4.854 6.302 6.278 7.926 7.898 9.01 1.484.9918 1.863 1.088 3.81.9708 2.72-.1643 4.377-1.306 5.262-3.624.9927-2.599.5616-4.354-3.538-14.41-2.983-7.315-3.468-9.406-3.495-15.05-.01658-3.555.1386-5.344.6124-7.056 2.025-7.317 6.944-13.38 13.46-16.6 3.774-1.861 6.682-2.551 10.76-2.551 14.42 0 25.78 12.48 24.94 27.42-.2441 4.382-1.132 7.839-3.484 13.57-2.632 6.411-4.161 10.96-4.159 12.38.00212 1.759 1.119 3.988 2.487 4.962.841.5988 1.776.8714 3.304.9637 1.921.116 2.299.01718 3.821-1 .9289-.621 2.754-2.486 4.057-4.145 8.347-10.63 10.62-13.04 14.6-15.46 13.33-8.095 30.11-3.55 36.63 9.917 5.969 12.34.4731 27.41-12.35 33.87-3.997 2.012-7.304 2.791-17.99 4.24-7.184.9739-9.903 2.357-10.92 5.558-.6893 2.161-.1764 4.078 1.532 5.725 1.913 1.845 3.768 2.393 11.89 3.511 3.605.4962 7.812 1.225 9.349 1.62 5.818 1.495 11.34 4.882 14.8 9.069 10.55 12.79 6.978 31.25-7.417 38.35-6.64 3.275-14.78 3.487-21.75.5648-5.14-2.154-9.355-5.785-14.56-12.54-6.255-8.121-7.618-9.46-10.23-10.05-2.863-.6456-6.062 1.282-6.929 4.174-.66 2.203-.05609 4.648 3.02 12.23 3.783 9.317 4.209 11.01 4.215 16.76.00388 3.513-.1612 5.364-.6294 7.056-1.411 5.1-4.895 10.58-8.625 13.58-2.436 1.956-6.899 4.214-9.759 4.939-2.69.6815-9.218.6654-11.83-.02917zm-2429-1.093c-2.416-.4037-6.618-2.109-8.906-3.613-7.1-4.67-11.42-12.28-11.82-20.84-.2287-4.868.3851-8.03 3.309-17.05 1.27-3.916 2.394-7.931 2.498-8.922.2526-2.413-.3919-4.252-1.788-5.104-1.338-.8156-2.307-.8524-3.984-.1516-1.79.7478-3.204 2.074-8.434 7.913-2.533 2.827-5.787 6.133-7.232 7.346-2.935 2.465-7.887 5.105-11.09 5.916-13.21 3.34-26.32-3.625-30.57-16.24-.7198-2.139-.8292-3.131-.817-7.408.0126-4.4.1174-5.247.9611-7.761 2.348-6.996 7.79-13.01 14.54-16.07 2.752-1.248 6.8-2.36 14.05-3.862 7.952-1.646 10.14-2.699 11.15-5.377.7478-1.979-1.032-4.406-4.063-5.54-1.016-.3802-4.618-1.256-8.005-1.947-6.171-1.258-11.54-2.831-14.18-4.152-6.083-3.043-11.3-9.077-13.49-15.61-.8455-2.52-.9478-3.351-.9549-7.761-.0073-4.518.0763-5.179.982-7.758 3.746-10.67 13.85-17.37 25.09-16.65 4.171.2678 6.724.9607 10.6 2.876 4.114 2.035 7.339 4.794 13.03 11.15 5.23 5.839 6.644 7.165 8.434 7.913 1.677.7009 2.646.664 3.984-.1516 1.396-.8514 2.041-2.691 1.788-5.104-.1037-.9907-1.228-5.005-2.498-8.922-2.924-9.015-3.538-12.18-3.309-17.05.2033-4.326 1.588-9.011 3.681-12.46 3.022-4.975 8.366-9.312 13.65-11.07 2.539-.8472 3.415-.9588 7.631-.9722 4.33-.01371 5.027.07556 7.671.9834 9.761 3.351 16.71 12.74 17.27 23.34.2548 4.812-.4251 8.379-3.268 17.14-1.284 3.959-2.419 8.008-2.523 8.999-.2526 2.413.3919 4.252 1.788 5.104 1.336.8145 2.307.8524 3.975.1552 1.88-.7856 3.035-1.863 8.247-7.698 2.619-2.932 5.953-6.336 7.408-7.565 2.954-2.494 7.786-5.057 11.29-5.987 3.156-.8379 9.941-.8316 13.04.01206 10.61 2.887 17.73 11.6 18.26 22.33.3941 8.068-2.383 14.83-8.371 20.37-4.601 4.26-9.339 6.24-20.42 8.532-7.082 1.466-9.423 2.253-10.71 3.606-1.919 2.012-1.963 3.716-.1466 5.644 1.447 1.536 3.664 2.308 10.9 3.798 3.348.6891 7.199 1.582 8.557 1.985 5.581 1.655 9.868 4.264 13.45 8.189 2.659 2.912 4.173 5.451 5.55 9.306 1.037 2.902 1.104 3.392 1.106 8.03.0015 4.222-.117 5.298-.8158 7.408-4.155 12.55-17.38 19.56-30.61 16.22-3.255-.8224-8.164-3.435-11.07-5.894-1.448-1.224-4.782-4.624-7.408-7.557-5.26-5.872-6.402-6.939-8.26-7.716-1.669-.6972-2.639-.6593-3.975.1552-1.396.8514-2.041 2.691-1.788 5.104.1037.9907 1.225 4.998 2.492 8.905 2.619 8.075 3.405 11.7 3.405 15.7 0 12.22-8.23 22.89-19.65 25.48-2.332.5282-7.41.7031-9.632.3318zm561-.1178c-4.979-.8983-9.362-3.247-13.17-7.056-6.637-6.637-9.063-15.23-7.065-25.04.388-1.904 1.642-6.374 2.788-9.933 2.689-8.358 2.912-10.88 1.12-12.67-.826-.8259-1.339-1.031-2.577-1.031-2.192 0-4.077 1.321-7.838 5.494-7.62 8.455-11.17 11.62-15.45 13.78-3.84 1.934-7.175 2.694-11.91 2.714-4.808.02001-7.395-.559-11.47-2.566-7.979-3.935-12.93-11.4-13.48-20.31-.6376-10.39 5.749-20.78 15.48-25.18 3.216-1.455 6.091-2.279 13.6-3.899 3.865-.8341 7.419-1.815 8.515-2.351 4.286-2.094 4.275-5.936-.0227-8.039-1.114-.5449-4.359-1.448-7.815-2.176-7.156-1.506-11.13-2.631-14.2-4.025-9.828-4.456-16.2-14.79-15.55-25.22.6628-10.63 7.615-19.14 18.08-22.12 2.196-.625 3.688-.7964 6.863-.7887 4.673.01139 8.026.7863 11.95 2.76 4.388 2.21 6.71 4.239 13.91 12.16 5.208 5.727 7.006 7.092 9.339 7.092 1.238 0 1.751-.2053 2.577-1.031 1.792-1.792 1.569-4.314-1.12-12.67-1.145-3.559-2.4-8.029-2.788-9.933-1.997-9.799.424-18.39 7.058-25.04 3.061-3.069 6.063-4.935 10.05-6.248 2.431-.8005 3.434-.9308 7.232-.9393 3.846-.0086 4.772.1101 7.239.9283 7.112 2.358 12.8 7.65 15.69 14.6 3.134 7.529 2.84 13.62-1.268 26.25-1.074 3.303-2.09 6.848-2.258 7.877-.6212 3.817.7824 6.201 3.65 6.201 2.12 0 4.076-1.359 7.645-5.314 7.914-8.769 11.27-11.78 15.53-13.92 10.08-5.078 22.03-3.336 29.82 4.347 11.64 11.49 8.616 31.13-6.119 39.76-3.367 1.971-7.574 3.329-15.78 5.093-3.937.8463-7.479 1.82-8.585 2.36-4.286 2.094-4.275 5.936.0227 8.039 1.114.5449 4.359 1.448 7.815 2.176 10.36 2.179 14.54 3.666 18.73 6.655 7.231 5.16 11.55 14.02 11.02 22.59-.5541 8.891-5.537 16.4-13.48 20.31-10.03 4.939-21.58 3.03-30.3-5.009-1.449-1.335-4.656-4.667-7.128-7.405s-5.212-5.433-6.09-5.99c-3.039-1.927-6.07-1.053-6.743 1.945-.4403 1.96.0302 4.281 2.254 11.12 1.074 3.303 2.291 7.638 2.704 9.634 2.88 13.91-4.393 27.15-17.12 31.17-3.174 1.003-8.342 1.387-11.35.8436zm-374.7-.7231c-4.299-.8453-8.357-3.031-11.93-6.424-6.924-6.577-9.578-15.59-7.537-25.6.3824-1.876 1.439-5.95 2.348-9.051 1.34-4.573 1.659-6.188 1.686-8.539.0296-2.565-.0585-2.992-.764-3.698-1.107-1.108-3.173-1.018-5.042.2185-.7837.5186-3.68 3.255-6.436 6.081-8.032 8.236-12.19 11.2-18.08 12.88-2.299.6578-3.635.7992-7.392.7823-3.974-.01786-4.963-.1449-7.408-.9517-8.303-2.739-14.52-9.287-16.64-17.53-.6931-2.695-.7715-8.5-.1498-11.1 1.762-7.36 6.481-13.67 12.97-17.33 3.101-1.753 6.95-3.078 14.3-4.925 3.533-.8872 7.187-1.942 8.121-2.343 4.499-1.936 4.503-5.685.0069-7.62-.9298-.4-4.545-1.441-8.034-2.314-9.948-2.489-13.85-4.081-17.82-7.263-10.08-8.087-12.87-20.95-6.99-32.22 1.604-3.077 6.421-7.814 9.646-9.488 7.048-3.658 14.95-4.049 22.3-1.104 4.25 1.701 7.337 4.075 14.01 10.77 3.478 3.489 6.929 6.746 7.67 7.236 1.791 1.185 3.878 1.256 4.965.1674.7055-.7063.7936-1.133.764-3.698-.0272-2.351-.346-3.966-1.686-8.539-3.075-10.5-3.644-15.29-2.482-20.92 1.137-5.505 3.654-9.946 7.904-13.94 4.693-4.415 10.17-6.591 16.58-6.591 4.103 0 7.068.6982 10.94 2.575 4.118 1.999 8.74 6.542 10.84 10.65 4.208 8.251 4.293 14.51.3736 27.77-1.492 5.047-1.807 6.594-1.832 8.995-.0269 2.563.0622 2.992.7671 3.698 1.109 1.11 3.173 1.018 5.052-.2251.7891-.5222 4.161-3.695 7.494-7.051 3.332-3.356 7.219-6.907 8.638-7.891 8.454-5.866 18.7-6.57 27.76-1.908 4.934 2.539 9.779 8.391 11.6 14.01 3.316 10.25-1.054 22.44-10.28 28.7-4.143 2.809-7.271 3.989-17 6.414-3.195.7964-6.572 1.776-7.505 2.177-4.497 1.935-4.499 5.685-.0044 7.619.9297.4 4.545 1.441 8.034 2.314 9.945 2.488 13.83 4.071 17.85 7.275 3.138 2.5 5.374 5.292 7.208 9.003 2.066 4.182 2.73 6.928 2.73 11.29 0 4.3-.6604 7.086-2.634 11.11-1.899 3.875-6.25 8.357-9.992 10.29-7.128 3.689-15.21 4.054-22.46 1.015-4.26-1.785-7.227-4.077-13.85-10.7-3.477-3.478-6.929-6.725-7.67-7.216-1.79-1.185-3.878-1.256-4.965-.1683-.6904.6904-.7975 1.163-.7975 3.522 0 2.23.3316 3.876 1.829 9.074 3.031 10.52 3.538 14.92 2.372 20.56-2.056 9.955-9.803 18.04-19.19 20.04-2.511.5336-7.76.5958-10.18.1206zm187.4-.1115c-11.9-2.275-20.63-13.11-20.63-25.59 0-3.653.68-7.328 2.811-15.19 2.085-7.695 2.291-10.3.9386-11.87-1.052-1.223-2.794-1.255-4.709-.08849-.7333.4468-4.191 3.608-7.683 7.025s-7.36 6.896-8.595 7.73c-4.969 3.357-9.399 4.718-15.39 4.73-4.449.0084-7.179-.5833-10.94-2.37-5.238-2.491-8.927-6.143-11.49-11.38-1.923-3.924-2.558-7.123-2.337-11.77.331-6.962 2.577-11.87 7.824-17.11 4.764-4.754 8.044-6.296 20.19-9.489 8.328-2.19 10.69-3.482 10.69-5.856 0-2.283-2.361-3.658-9.414-5.484-12.67-3.281-16.78-5.168-21.46-9.851-5.251-5.258-7.494-10.17-7.824-17.12-.2128-4.476.3709-7.619 2.107-11.34 3.116-6.687 8.674-11.35 15.97-13.39 3.658-1.026 9.432-1.095 13.04-.157 6.17 1.606 9.394 3.769 17.64 11.84 6.826 6.679 8.314 7.818 10.29 7.874 3.133.08882 3.769-3.397 1.859-10.19-2.881-10.24-3.29-12.4-3.308-17.44-.0192-5.371.4598-7.718 2.413-11.82 3.242-6.806 9.321-11.91 16.44-13.81 3.07-.8187 8.923-.8195 11.98-.0018 7.127 1.904 13.02 6.789 16.24 13.46 2.276 4.718 2.648 6.409 2.633 11.99-.0141 5.241-.3818 7.196-3.312 17.61-1.91 6.79-1.274 10.28 1.859 10.19 1.972-.0559 3.46-1.195 10.29-7.874 3.492-3.417 7.36-6.896 8.595-7.73 4.937-3.335 9.54-4.753 15.39-4.742 4.449.00884 7.211.6105 10.94 2.382 5.238 2.491 8.927 6.143 11.49 11.38 1.923 3.924 2.558 7.123 2.337 11.77-.3264 6.865-2.575 11.84-7.654 16.93-4.805 4.82-8.398 6.552-19.73 9.506-8.79 2.293-10.75 3.263-11.18 5.535-.4924 2.625 1.911 4.083 10.34 6.274 12.24 3.181 15.63 4.769 20.39 9.541 1.746 1.752 3.709 4.097 4.362 5.21 4.177 7.123 4.703 16.32 1.336 23.36-5.574 11.65-18.93 17.04-31.43 12.68-4.798-1.672-7.553-3.681-15.04-10.97-3.824-3.72-7.468-7.031-8.099-7.357-1.86-.9618-3.452-.8342-4.478.3586-.8107.9425-.8649 1.226-.7048 3.687.1047 1.61.8816 5.283 1.961 9.271 2.179 8.051 2.696 11.37 2.426 15.59-.355 5.531-2.049 10.19-5.294 14.56-3.07 4.137-8.49 7.797-13.47 9.096-3.014.7861-7.656.9617-10.59.4005zm-1310-5.018c-8.513-2.058-15.85-9.361-18.38-18.3-.4664-1.646-.6469-4.246-.812-11.69-.194-8.75-.2703-9.641-.8843-10.32-.3696-.4079-.9252-.7402-1.235-.7383-.8654.0053-3.81 1.468-6.736 3.348-4.05 2.601-9.43 5.326-12.17 6.164-6.036 1.847-12.95 1.238-18.87-1.665-2.789-1.366-3.856-2.148-6.36-4.658-4.926-4.939-7.152-10.27-7.149-17.13.0016-4.355.665-7.103 2.726-11.29 3.13-6.359 6.801-9.558 17.58-15.32 5.131-2.744 6.028-3.665 5.333-5.476-.2971-.7742-2.362-2.143-7.19-4.765-2.231-1.212-5.113-2.903-6.403-3.759-11.46-7.593-15.31-21.64-9.183-33.47 1.744-3.368 6.395-8.019 9.766-9.767 4.407-2.285 7.133-2.933 12.35-2.933 6.783 0 9.826 1.099 19.83 7.166 5.414 3.282 6.54 3.66 7.637 2.563.7194-.7187.7621-1.173.9715-10.36.2412-10.57.4348-11.77 2.635-16.38 3.182-6.662 9.76-12.02 16.78-13.68 2.883-.6797 8.309-.6739 11.23.01201 7.048 1.655 13.5 6.933 16.76 13.72 2.177 4.528 2.376 5.769 2.609 16.3.194 8.75.2703 9.641.8843 10.32.3696.4079.9252.7402 1.235.7383.8992-.00551 3.826-1.491 7.449-3.782 7.384-4.668 11.89-6.393 17.47-6.699 4.766-.2604 8.46.4895 12.84 2.608 2.805 1.355 3.815 2.094 6.366 4.655 2.421 2.431 3.326 3.648 4.495 6.043 2.216 4.541 2.662 6.735 2.478 12.17-.1368 4.03-.2866 4.936-1.236 7.47-2.86 7.636-7.126 11.75-18.54 17.9-7.895 4.251-7.883 5.34.1045 9.637 10.52 5.66 13.97 8.701 17.12 15.09 2.092 4.234 2.631 6.548 2.631 11.29 0 4.678-.5372 7.035-2.533 11.11-1.175 2.4-2.075 3.606-4.512 6.043-2.553 2.554-3.581 3.304-6.378 4.655-4.384 2.118-8.079 2.868-12.84 2.608-5.693-.3111-9.622-1.862-18.54-7.316-2.231-1.365-4.66-2.664-5.397-2.886-1.207-.3636-1.417-.3267-2.117.3719-.7505.7498-.7835 1.096-.9887 10.38-.2338 10.58-.436 11.84-2.616 16.31-3.35 6.871-9.696 12.07-16.76 13.74-2.856.6731-8.631.6629-11.46-.02025zm5424-5.822c-8.968-.7797-17.67-5.211-25.94-13.2-4.087-3.952-6.842-5.782-10.27-6.824-6.947-2.112-10.51-3.37-12.8-4.516-11.12-5.572-18.03-13.93-21.09-25.5-.9045-3.424-1.245-11.16-.671-15.22.23-1.627.9232-5.022 1.541-7.545.8139-3.325 1.123-5.411 1.123-7.585 0-2.174-.3087-4.259-1.123-7.585-1.626-6.641-1.988-9.781-1.765-15.31.2985-7.403 2.139-13.3 5.965-19.1 5.644-8.567 14.15-14.3 25.89-17.45 5.672-1.522 8.066-2.894 12.64-7.247 5.146-4.895 8.994-7.727 13.41-9.871 11.14-5.409 22.55-5.405 33.59.01066 4.357 2.138 8.347 5.048 12.93 9.429 4.209 4.027 6.767 5.725 10.18 6.753 6.831 2.06 10.5 3.372 13.13 4.695 13.91 6.994 21.75 19.49 21.75 34.64-.0018 4.479-.563 8.366-2.15 14.88-1.325 5.442-1.279 7.237.3563 13.88 1.54 6.252 1.92 9.685 1.687 15.2-.3211 7.58-2.149 13.35-6.113 19.31-5.59 8.403-13.84 13.92-25.74 17.21-5.92 1.636-7.992 2.819-12.58 7.18-4.947 4.705-8.678 7.511-12.82 9.641-6.681 3.434-13.57 4.775-21.14 4.117zm-5611-11.75c-5.383-1.52-9.32-3.954-12.79-7.908-8.51-9.698-11.88-11.84-21.25-13.5-7.943-1.412-12.52-3.617-16.62-8.007-3.923-4.199-5.999-8.631-6.613-14.12-.4719-4.218.0372-7.735 1.872-12.94 2.293-6.503 2.79-9.081 2.572-13.36-.1849-3.631-.6804-5.64-3.043-12.34-3.959-11.22-.1452-22.93 9.573-29.39 3.015-2.004 6.88-3.365 12.26-4.316 7.745-1.369 11.15-3.026 15.7-7.649 1.746-1.773 4.604-4.73 6.35-6.571 2.804-2.956 3.567-3.539 6.526-4.987 4.385-2.145 6.713-2.702 11.29-2.702 4.576 0 6.904.5571 11.29 2.702 2.963 1.449 3.719 2.028 6.526 4.992 1.746 1.844 4.604 4.796 6.35 6.561 4.581 4.63 7.976 6.285 15.7 7.658 7.469 1.327 11.61 3.18 15.65 6.999 2.564 2.424 4.56 5.315 5.882 8.52 1.475 3.577 1.86 6.057 1.675 10.8-.1443 3.706-.3074 4.557-1.506 7.86-2.2 6.059-2.967 9.349-2.987 12.81-.0223 3.795.6084 6.68 2.738 12.52l1.634 4.483.0083 5.468c.0076 5.059-.0623 5.661-.9355 8.056-1.876 5.144-5.363 9.624-9.772 12.55-3.29 2.187-5.391 2.94-11.88 4.259-9.305 1.892-12.29 3.433-17.4 8.982-7.795 8.465-9.814 10.04-15.48 12.07-2.666.9558-10.64 1.254-13.32.4984zm5796-5.726c-3.306-.4381-8.404-1.658-11.69-2.799-6.211-2.154-16.66-7.869-23.14-12.66-6.04-4.463-11.86-11.24-15.15-17.64-4.714-9.184-6.171-16.22-6.171-29.81 0-15.8 2.407-24.83 9.358-35.1 2.403-3.55 8.733-10.08 12.14-12.53 6.879-4.935 16.91-10.39 22.96-12.49 6.526-2.263 9.945-2.819 17.34-2.819 5.404 0 7.142.1334 10.11.7762 4.813 1.044 10.02 2.895 14.6 5.194 16.04 8.045 25.67 16.64 31.37 28 1.817 3.622 4.021 10.12 4.8 14.15.9176 4.751 1.12 21.37.3281 26.94-1.631 11.47-6.267 21.22-13.91 29.25-8.47 8.902-25.02 18.17-37.01 20.74-3.352.7159-12.95 1.203-15.93.8078zm933.7-3.646c-20.71-2.618-38.2-15.15-47.02-33.7-4.19-8.807-6.05-17.96-5.663-27.87.9765-25 17.07-46.4 40.84-54.3 24.02-7.977 50.95.3422 65.99 20.39 11.97 15.95 15.38 35.75 9.399 54.55-3.054 9.595-9.713 19.77-17.22 26.31-8.072 7.036-17.87 11.83-28.4 13.9-4.357.857-13.81 1.232-17.93.7119zm186.7-1.071c-7.347-1.024-13.46-2.948-19.74-6.214-5.62-2.921-9.109-5.423-13.71-9.83-5.024-4.815-8.691-9.785-11.71-15.88-2.778-5.595-4.196-9.684-5.351-15.43-1.151-5.727-1.151-15.97 0-21.7 1.155-5.748 2.574-9.837 5.351-15.43 5.598-11.28 14.66-20.34 25.94-25.94 5.595-2.778 9.684-4.195 15.43-5.351 5.756-1.157 15.97-1.152 21.76.0115 11.37 2.285 21.22 7.368 29.33 15.14 5.276 5.055 8.921 9.971 11.97 16.14 4.838 9.793 6.668 18.16 6.25 28.57-.3556 8.878-2.393 16.61-6.473 24.55-8.108 15.79-23.32 27.2-40.89 30.66-4.376.8623-14.25 1.241-18.16.6963zm-375-.5254c-22.92-3.147-42.08-20.09-48.11-42.53-6.549-24.36 3.339-50.18 24.47-63.91 19.48-12.65 44.7-12.58 63.85.1725 26.66 17.76 34.13 53.57 16.73 80.26-5.846 8.969-13.26 15.56-22.9 20.36-6.713 3.345-11.82 4.888-19.22 5.807-3.92.4871-10.64.414-14.83-.1615zm563.2-1.594c-13.3-1.503-24.36-6.845-33.89-16.37-5.186-5.183-8.18-9.351-11.05-15.38-8.702-18.28-7.196-38.82 4.098-55.9 3.189-4.823 10.28-11.91 15.1-15.1 15.12-9.998 33.11-12.36 50-6.575 11.3 3.872 21.63 11.84 28.32 21.85 12.82 19.19 12.77 43.81-.1355 62.98-8.472 12.58-22.15 21.4-37.18 23.96-3.952.6738-11.64.9424-15.26.5331zm-1122-.3669c-20.64-1.996-38.6-15.56-46.48-35.11-7.724-19.16-3.844-41.63 9.924-57.46 13.06-15.02 33.92-22.05 53.44-18 32.71 6.776 52.29 40.83 41.78 72.7-1.343 4.074-4.783 10.77-7.511 14.61-3.042 4.287-8.858 10.1-13.15 13.15-3.833 2.72-10.53 6.168-14.58 7.499-7.436 2.45-15.66 3.367-23.44 2.614zm-7291-.5645c-3.273-.2733-8.371-1.333-11.99-2.492-8.671-2.775-15.04-6.586-21.65-12.95-8.388-8.081-13.65-17.82-16-29.63-1.103-5.537-1.105-14.6-.0037-20.13 2.346-11.77 7.657-21.61 16-29.65 8.096-7.799 17.06-12.45 28.33-14.7 5.59-1.114 14.6-1.106 20.24.01826 14.86 2.959 27.47 11.27 35.65 23.51 14.89 22.27 12.09 50.98-6.814 69.89-11.75 11.75-27.38 17.51-43.77 16.14zm7665-.1591c-15-1.724-28.32-9.153-37.59-20.97-5.434-6.927-8.994-14.81-10.82-23.94-1.098-5.497-1.096-14.57.0039-20.13 3.984-20.15 17.92-36.09 37.12-42.47 5.96-1.981 10.35-2.655 17.29-2.655 6.93 0 11.52.7051 17.39 2.67 18.94 6.346 33.15 22.52 36.91 42.02 3.513 18.2-2.072 36.28-15.29 49.5-12.07 12.07-28.45 17.89-45 15.98zm936.1.1591c-3.273-.2733-8.371-1.333-11.99-2.492-8.671-2.775-15.04-6.586-21.65-12.95-8.388-8.081-13.65-17.82-16-29.63-1.103-5.537-1.105-14.6-.0035-20.13 2.346-11.77 7.657-21.61 16-29.65 8.096-7.799 17.06-12.45 28.33-14.7 5.59-1.114 14.6-1.106 20.24.01826 14.86 2.959 27.47 11.27 35.65 23.51 14.89 22.27 12.09 50.98-6.814 69.89-11.75 11.75-27.38 17.51-43.77 16.14zm-1124-1.682c-20.52-2.958-37.2-16.87-43.76-36.49-2.052-6.144-2.604-9.736-2.604-16.97 0-7.271.55-10.83 2.646-17.1 5.417-16.21 17.86-28.62 34.15-34.07 6.175-2.063 9.746-2.613 16.97-2.613 7.096 0 10.55.5166 16.66 2.492 18.84 6.09 32.87 22.18 36.51 41.86.8347 4.515.8266 14.38-.0158 18.95-2.607 14.15-11.12 27.23-22.84 35.09-6.034 4.048-13.84 7.258-20.62 8.479-4.384.7897-12.92.9756-17.11.3724zm-7291-11.67c-8.836-1.386-17.56-5.978-23.83-12.55-12.6-13.2-15.36-32.49-6.957-48.76 8.292-16.05 26.32-25.17 44.08-22.29 28.41 4.608 44.13 35.46 31.07 60.99-8.382 16.38-26.19 25.46-44.36 22.61zm936-.2034c-9.292-1.081-18.14-5.511-24.52-12.28-10.79-11.44-14.56-26.97-10.08-41.6 2.432-7.947 8.455-16.52 15.15-21.56 14.21-10.71 35.8-10.72 49.99-.0278 8.272 6.233 14.52 16.35 16.5 26.74.6515 3.405.6407 10.48-.0218 14.28-1.338 7.673-5.41 15.67-11.15 21.9-8.824 9.576-21.95 14.17-35.86 12.55zm-748.5-4.688c-3.658-.7009-6.361-1.543-9.29-2.892-10.22-4.71-17.81-13.77-20.76-24.77-.8153-3.036-.9195-4.084-.9195-9.245 0-5.161.1042-6.209.9195-9.245 1.828-6.809 5.208-12.57 10.23-17.45 4.946-4.799 10.19-7.79 16.77-9.555 3.036-.8153 4.084-.9195 9.245-.9195s6.209.1042 9.245.9195c13.34 3.583 23.42 13.66 27 27 .8153 3.036.9195 4.084.9195 9.245 0 5.161-.1042 6.209-.9195 9.245-3.587 13.36-13.81 23.57-27 26.96-4.267 1.099-11.61 1.43-15.44.6955zm189.1-1.133c-2.652-.3937-6.476-1.344-8.551-2.125-11.17-4.204-19.45-13.61-22.39-25.42-1.098-4.417-1.098-12.03 0-16.44 3.324-13.37 13.4-23.45 26.77-26.77 4.417-1.098 12.03-1.098 16.44 0 13.39 3.329 23.43 13.4 26.8 26.88 1.131 4.519 1.048 12.32-.1809 16.94-3.424 12.88-13.31 22.75-26.02 25.98-3.274.831-10.27 1.357-12.88.9689zm184.9-.8624c-11.79-1.979-22.35-10.62-26.84-21.97-1.818-4.598-2.404-8.293-2.217-14 .3105-9.501 3.124-16.39 9.406-23.02 4.743-5.009 9.553-8.007 16.07-10.01 2.983-.9176 3.57-.9768 9.701-.9768s6.719.0592 9.701.9768c10.16 3.127 17.8 9.65 22.21 18.97 2.749 5.811 3.195 7.965 3.165 15.29-.0242 5.874-.0987 6.588-.9934 9.525-3.938 12.93-13.99 22.26-26.85 24.91-3.362.6939-10.09.8431-13.35.2959zm187.4-.01973c-11.44-1.754-22.35-10.28-26.78-20.93-2.12-5.091-2.666-7.953-2.663-13.96.002-4.858.1088-5.853.9581-8.916 3.54-12.77 12.72-21.84 25.67-25.37 4.159-1.132 12.89-1.14 16.99-.01683 12.27 3.363 21.26 11.86 25.12 23.78 1.857 5.725 2.096 13.26.6059 19.05-3.261 12.66-13.02 22.42-25.73 25.73-3.195.8323-10.68 1.163-14.17.6268z" stroke-width=".3528"/>
</g>
</svg>
